<?xml version="1.0" standalone="no"?>
<!DOCTYPE svg PUBLIC "-//W3C//DTD SVG 20010904//EN"
 "http://www.w3.org/TR/2001/REC-SVG-20010904/DTD/svg10.dtd">
<svg version="1.0" xmlns="http://www.w3.org/2000/svg"
 width="2291.000000pt" height="1185.000000pt" viewBox="0 0 2291.000000 1185.000000"
 preserveAspectRatio="xMidYMid meet">

<g transform="translate(0.000000,1185.000000) scale(0.100000,-0.100000)"
fill="#000000" stroke="none">
<path d="M11010 6497 c-30 -29 -95 -86 -143 -126 -48 -41 -99 -93 -112 -116
-30 -51 -77 -89 -174 -141 -102 -54 -132 -89 -165 -187 -15 -45 -39 -105 -52
-133 -14 -28 -29 -79 -35 -113 -5 -35 -15 -76 -22 -91 -19 -44 -123 -150 -147
-150 -40 0 -78 -33 -127 -109 -69 -107 -336 -386 -416 -433 -87 -51 -120 -84
-158 -158 -40 -80 -99 -168 -129 -195 -13 -11 -61 -64 -107 -117 -54 -63 -91
-98 -104 -98 -33 0 -71 25 -126 83 -45 47 -50 56 -33 60 21 5 63 83 75 137 4
19 22 64 40 100 18 36 38 83 45 105 7 22 21 55 32 73 11 18 18 35 15 38 -3 3
-28 -9 -56 -26 -88 -55 -115 -29 -87 82 10 40 20 76 22 80 2 3 18 0 35 -9 39
-20 116 -113 164 -199 55 -101 97 -165 103 -159 3 2 -2 13 -10 22 -9 10 -36
59 -61 109 -66 131 -142 238 -179 250 -11 3 -35 21 -53 39 -71 68 -96 85 -130
85 -26 0 -35 5 -44 28 -6 15 -22 41 -35 57 l-24 30 -20 -25 c-19 -23 -21 -24
-39 -9 -10 9 -40 28 -68 42 -78 40 -92 57 -100 129 -7 67 -23 101 -62 133 -13
11 -31 36 -41 55 -13 27 -27 38 -64 50 -25 8 -56 23 -67 34 -16 14 -29 17 -58
13 -44 -7 -58 0 -173 86 -41 32 -79 57 -85 57 -5 0 -25 -15 -45 -34 -19 -19
-64 -57 -100 -83 -40 -30 -82 -74 -111 -115 -68 -100 -156 -168 -217 -168 -38
0 -85 -33 -174 -122 -40 -40 -94 -85 -121 -100 -33 -20 -59 -45 -85 -87 -38
-61 -58 -75 -127 -87 -81 -14 -177 -72 -190 -114 -4 -12 -15 -20 -29 -20 -42
0 -144 -59 -178 -103 -17 -23 -32 -43 -33 -44 0 -1 -26 5 -58 12 -74 17 -174
64 -217 102 -48 42 -93 59 -215 82 -57 11 -113 25 -125 31 -19 10 -23 6 -50
-54 l-30 -66 -56 21 -56 21 -22 -26 c-12 -14 -59 -41 -110 -62 -98 -41 -115
-59 -141 -152 -8 -28 -21 -76 -30 -105 -17 -62 -52 -105 -93 -113 -24 -5 -32
-15 -47 -55 -9 -28 -17 -72 -17 -98 l0 -49 -63 5 c-79 7 -101 -5 -130 -70 -12
-29 -39 -69 -58 -89 -35 -38 -50 -71 -61 -140 -7 -36 -53 -88 -80 -88 -30 0
-165 -76 -253 -143 -54 -41 -116 -84 -139 -95 -75 -38 -140 -107 -179 -190
-20 -42 -50 -94 -66 -114 -30 -39 -59 -106 -59 -139 0 -10 -13 -33 -30 -52
-38 -43 -49 -73 -66 -176 -9 -56 -24 -102 -45 -140 -33 -60 -109 -165 -114
-159 -2 2 3 32 10 68 7 36 19 111 26 168 11 90 10 113 -6 197 -17 90 -17 97 0
140 21 55 54 81 84 66 27 -15 31 -14 31 8 0 11 4 22 9 25 4 3 23 40 41 83 19
43 46 96 62 117 35 49 35 56 1 118 -27 48 -28 49 -9 64 13 9 44 14 84 14 l64
0 -7 28 c-3 15 -16 43 -29 62 -12 19 -30 53 -40 75 -10 22 -27 58 -37 81 -10
22 -19 53 -19 68 0 27 2 28 35 22 29 -6 34 -4 29 9 -3 8 -10 15 -14 15 -13 0
-89 207 -96 263 -7 52 -7 52 14 34 20 -18 21 -18 31 2 6 11 11 29 11 40 0 27
3 26 34 -3 42 -38 130 -80 326 -155 171 -65 308 -127 370 -167 14 -9 7 0 -14
20 -45 42 -184 114 -381 201 -77 34 -158 71 -181 82 -63 33 -139 108 -174 171
-50 88 -99 151 -132 168 -31 16 -31 16 -67 -24 -55 -61 -109 -98 -123 -84 -28
28 -77 12 -145 -48 -23 -20 -77 -54 -120 -74 -82 -40 -93 -49 -133 -108 -32
-49 -80 -72 -153 -72 l-58 -1 -69 -71 c-66 -67 -70 -75 -70 -116 0 -61 -27
-98 -127 -175 -45 -35 -104 -91 -131 -126 -27 -34 -59 -71 -71 -81 -20 -18
-22 -18 -39 -3 -10 10 -22 17 -26 17 -5 0 -28 14 -53 30 -25 17 -68 42 -96 57
-28 14 -68 37 -89 50 -36 24 -39 25 -63 9 -37 -24 -82 -19 -143 16 -41 23 -59
29 -71 21 -9 -5 -41 -16 -71 -23 -71 -17 -96 -30 -161 -85 -70 -60 -109 -79
-224 -110 -158 -43 -198 -65 -333 -183 -40 -34 -91 -70 -114 -78 -23 -8 -50
-22 -60 -31 -17 -15 -20 -15 -46 9 -36 34 -94 52 -140 43 -20 -4 -87 -33 -148
-66 -125 -66 -182 -76 -222 -39 -12 11 -23 20 -26 20 -11 0 -58 -57 -77 -93
-11 -21 -24 -35 -30 -32 -11 8 -48 -70 -49 -102 0 -32 -16 -28 -28 6 -14 39
-6 66 35 123 18 25 39 62 46 81 6 20 25 50 41 67 24 27 27 38 22 69 -4 24 -1
44 8 56 13 18 14 18 42 -2 72 -49 140 -57 235 -28 30 9 103 19 162 22 93 5
114 9 144 30 l36 24 67 -35 c99 -52 103 -44 10 19 l-82 54 -33 -24 c-29 -23
-40 -25 -142 -25 -66 0 -140 -7 -183 -16 -81 -19 -112 -13 -182 32 -63 41 -90
32 -183 -57 -31 -29 -71 -56 -105 -68 -75 -28 -126 -78 -180 -176 -51 -94
-116 -163 -268 -287 l-52 -42 2 -173 c2 -95 6 -173 10 -173 4 0 43 16 87 35
94 42 114 43 146 10 28 -27 30 -50 13 -140 -15 -85 -3 -113 62 -143 27 -12 52
-31 55 -42 4 -11 10 -20 15 -20 11 0 45 43 76 95 l23 40 1 -33 c0 -18 -12 -61
-27 -95 -23 -52 -27 -75 -26 -142 0 -44 8 -109 17 -145 9 -39 16 -108 16 -175
0 -117 3 -128 58 -188 14 -15 28 -27 32 -27 3 0 41 32 85 70 135 119 225 149
276 92 14 -15 38 -49 54 -76 l28 -50 23 28 c13 15 24 35 24 44 0 27 55 87 97
107 53 25 170 55 219 55 29 0 46 -6 60 -21 18 -20 19 -38 17 -236 -2 -250 0
-251 72 -83 30 69 58 116 83 140 20 20 57 59 82 87 48 52 113 83 176 83 33 0
43 -8 143 -114 69 -73 123 -77 131 -11 4 33 8 39 25 37 31 -6 82 -48 126 -107
43 -57 122 -105 173 -105 26 0 26 0 7 22 -144 170 -223 276 -246 331 -8 20
-19 91 -24 159 -5 68 -17 144 -26 171 -16 48 -14 67 9 67 19 0 55 37 62 64 4
16 -6 40 -38 85 -41 60 -43 66 -43 135 0 67 3 77 37 128 22 34 73 84 132 132
66 53 96 84 96 98 0 12 12 45 27 75 25 48 26 56 13 76 -25 40 -38 72 -45 107
-5 30 0 44 35 97 36 53 42 69 43 122 1 34 5 61 9 61 3 0 18 -20 32 -43 13 -24
39 -58 55 -76 25 -27 36 -32 58 -27 26 6 30 2 60 -56 23 -44 56 -84 111 -135
91 -83 112 -119 112 -196 0 -59 5 -66 54 -76 29 -6 31 -10 34 -56 3 -39 10
-57 33 -81 29 -29 29 -33 19 -78 -11 -52 -2 -79 42 -127 60 -65 68 -80 68
-137 0 -54 1 -56 67 -126 37 -39 71 -73 76 -75 13 -5 -38 65 -81 111 -33 35
-35 40 -29 88 8 63 -2 90 -59 159 -29 35 -43 60 -39 70 4 9 9 37 12 62 5 41 2
49 -26 81 -25 28 -31 45 -31 80 0 53 -22 88 -56 88 -21 0 -24 4 -24 36 0 79
-20 114 -125 219 -88 86 -106 110 -135 177 -18 43 -37 78 -41 78 -4 0 -17 -11
-30 -25 -13 -13 -27 -25 -30 -25 -3 0 -35 42 -71 93 -36 50 -97 124 -136 163
-75 76 -124 154 -98 154 8 0 17 -4 20 -9 4 -5 27 -16 52 -25 37 -13 54 -13 95
-4 45 10 53 9 92 -12 48 -26 175 -102 227 -136 19 -12 49 -25 66 -28 46 -10
98 -58 130 -122 32 -64 64 -91 149 -130 42 -20 82 -50 135 -104 70 -72 137
-124 270 -211 35 -23 69 -57 95 -95 199 -294 259 -377 269 -367 3 4 6 -3 6
-15 0 -12 4 -21 9 -20 9 3 11 -2 11 -19 0 -5 -9 -19 -19 -32 l-18 -24 -39 27
c-21 14 -42 26 -47 26 -5 0 -54 -40 -110 -88 -110 -96 -161 -129 -336 -216
-178 -89 -221 -120 -441 -316 -74 -66 -232 -189 -310 -243 -14 -9 -50 -35 -80
-57 -263 -192 -498 -315 -688 -360 -29 -7 -51 -14 -48 -17 2 -3 52 7 109 21
116 29 233 76 381 154 54 29 104 52 112 52 18 0 163 69 239 114 33 20 67 39
75 43 8 4 47 25 85 48 74 43 239 122 339 161 66 27 206 44 206 25 0 -15 31
-13 53 3 107 81 249 223 267 265 11 27 17 31 51 31 32 0 42 -6 65 -35 14 -19
29 -35 33 -35 3 0 12 12 18 27 7 16 45 71 85 123 40 52 88 124 108 160 21 39
48 73 68 85 99 61 159 114 202 178 25 37 55 74 68 83 21 15 24 13 81 -47 82
-85 111 -147 120 -253 8 -88 12 -96 67 -156 18 -19 40 -52 49 -74 9 -21 49
-71 89 -110 77 -76 114 -142 158 -275 12 -39 26 -71 30 -71 20 0 4 191 -49
570 -22 161 -25 528 -4 610 8 30 31 89 52 130 21 42 45 104 53 139 15 65 26
85 70 136 14 17 31 45 37 63 6 17 14 32 18 32 3 0 21 -39 39 -87 27 -70 35
-111 43 -208 12 -157 14 -166 61 -259 22 -44 50 -109 64 -145 13 -35 35 -79
47 -95 13 -17 31 -52 41 -78 17 -46 79 -149 107 -178 8 -8 25 -28 38 -45 16
-19 22 -23 17 -10 -35 97 -42 404 -12 545 40 189 109 341 189 421 61 61 73 84
86 162 15 87 34 127 76 154 30 20 47 51 72 133 4 12 6 12 15 -4 9 -16 12 -13
30 25 27 62 46 79 85 79 29 0 38 -7 66 -47 17 -26 67 -83 109 -127 59 -60 89
-101 127 -176 28 -53 79 -139 114 -191 47 -71 72 -121 100 -202 20 -60 49
-124 64 -144 15 -19 36 -44 45 -56 12 -15 21 -53 27 -112 6 -49 19 -126 31
-170 20 -77 50 -337 50 -438 0 -44 1 -46 19 -35 11 7 21 27 24 51 11 84 108
250 230 393 31 37 57 74 57 81 0 8 -7 25 -16 38 -16 24 -15 26 20 57 54 47 50
84 -13 151 -56 59 -71 91 -71 147 0 21 -15 78 -34 126 -18 49 -39 119 -46 155
-14 80 -37 120 -84 151 -23 15 -56 58 -97 126 -50 84 -75 115 -136 165 -109
91 -298 357 -362 507 -17 41 -46 99 -65 130 -37 61 -55 120 -36 120 20 0 253
-117 320 -161 36 -24 110 -89 165 -145 55 -56 133 -123 173 -149 41 -26 87
-61 103 -78 41 -43 83 -135 110 -242 22 -91 36 -115 121 -214 21 -24 38 -48
38 -53 0 -18 66 -145 98 -188 19 -25 43 -58 55 -74 29 -39 147 -188 159 -201
9 -10 -3 29 -23 68 -9 19 -8 19 11 -3 l21 -25 -17 40 c-60 141 -84 209 -99
280 -27 121 -40 173 -68 255 -14 41 -33 116 -41 165 -14 77 -29 115 -101 259
-47 93 -83 171 -80 174 12 12 65 -58 157 -203 52 -82 107 -172 123 -200 16
-27 47 -73 69 -102 23 -29 49 -63 59 -75 17 -23 17 -23 11 17 -4 22 -26 103
-50 180 -29 93 -44 158 -44 195 0 30 -7 96 -15 145 -19 115 -20 315 -2 315 6
0 48 -11 92 -25 44 -14 101 -28 128 -31 l47 -7 0 125 c0 82 5 142 16 178 8 30
22 80 30 110 8 30 23 82 33 115 13 40 21 103 25 185 3 70 12 148 21 178 12 39
14 71 9 122 -7 77 -4 85 68 171 21 25 38 51 38 57 0 22 21 13 76 -33 31 -25
68 -52 84 -61 l28 -17 -20 -46 c-23 -55 -35 -146 -28 -221 5 -50 6 -47 11 39
4 78 9 97 26 110 29 24 46 60 39 86 -5 20 -2 23 31 27 26 3 42 -1 55 -14 10
-10 24 -18 31 -18 36 -1 37 -18 3 -52 -33 -33 -36 -41 -36 -92 0 -41 -7 -70
-25 -104 -20 -39 -26 -70 -34 -177 -8 -113 -24 -190 -47 -226 -4 -6 -11 -6
-20 2 -25 21 -27 2 -5 -64 18 -53 20 -69 10 -93 -6 -16 -15 -75 -19 -132 -5
-56 -16 -117 -24 -134 -21 -41 -21 -42 14 -21 17 9 30 21 30 25 0 4 7 8 15 8
19 0 19 -35 1 -185 -8 -60 -10 -114 -6 -119 5 -4 18 36 30 90 12 55 28 119 35
144 7 25 21 78 30 118 15 64 24 81 69 129 28 30 79 77 112 104 46 36 71 66 97
117 44 83 100 232 88 232 -5 0 -45 -39 -88 -86 -43 -48 -97 -99 -120 -115 -40
-28 -42 -28 -77 -14 -53 22 -49 57 20 180 69 125 84 160 84 198 l0 30 -25 -23
c-23 -22 -25 -22 -25 -4 0 10 10 47 22 82 33 94 52 82 72 -48 10 -61 39 -95
109 -128 36 -17 74 -43 86 -58 l21 -27 26 24 25 24 18 -24 c24 -32 45 -149 33
-182 -6 -13 -22 -31 -36 -38 -33 -18 -33 -37 -2 -45 20 -5 26 -14 32 -52 3
-25 4 -79 2 -119 -8 -119 -47 -164 -177 -204 -38 -12 -72 -21 -74 -21 -3 0 9
33 28 74 34 74 75 241 75 304 l0 34 -42 -37 c-23 -19 -54 -38 -68 -41 -14 -3
-30 -7 -36 -9 -6 -2 -16 -32 -23 -67 -6 -34 -17 -88 -22 -118 -12 -59 -33
-101 -86 -166 -47 -59 -70 -117 -83 -214 -14 -110 -26 -145 -64 -200 -49 -68
-89 -140 -83 -147 12 -11 75 39 172 136 55 56 102 101 106 101 3 0 12 -11 19
-25 30 -57 88 -33 175 73 54 66 94 95 47 34 -33 -41 -49 -70 -87 -154 -20 -43
-45 -74 -103 -125 -42 -37 -90 -84 -107 -103 -19 -22 -7 -15 31 20 33 30 84
75 113 98 41 35 61 63 98 139 32 65 69 120 120 178 61 70 112 116 113 103 1
-2 2 -31 3 -66 2 -58 5 -66 35 -90 28 -23 32 -33 32 -73 0 -31 -7 -55 -20 -72
-17 -22 -129 -109 -280 -219 -58 -43 -150 -128 -150 -140 0 -5 20 8 44 29 24
21 112 81 195 133 84 52 171 112 194 132 23 21 44 38 48 38 3 0 24 -27 47 -60
27 -37 58 -68 82 -80 32 -16 41 -28 50 -63 22 -86 42 -124 109 -209 38 -48 74
-102 80 -120 6 -18 18 -86 26 -152 17 -139 35 -182 104 -249 55 -54 75 -95 96
-207 l14 -75 -4 80 c-6 98 -20 151 -50 190 -25 34 -34 73 -65 275 -27 184 -44
256 -73 326 l-25 59 24 8 c13 5 24 12 24 16 0 4 17 13 38 19 94 28 167 111
257 291 55 110 55 110 123 147 37 20 85 53 106 73 l40 36 -29 -40 c-41 -58
-76 -94 -112 -117 -18 -11 -33 -26 -33 -34 0 -8 -16 -48 -35 -89 -44 -95 -53
-127 -32 -119 22 8 37 -26 37 -85 0 -28 3 -51 6 -51 3 0 26 17 52 39 52 43
158 101 184 101 20 0 40 -54 40 -114 1 -30 -7 -58 -25 -87 -34 -59 -86 -119
-103 -119 -8 0 -14 -5 -14 -10 0 -6 -18 -47 -39 -93 -21 -45 -42 -97 -46 -114
-8 -41 2 -76 21 -69 8 3 20 9 28 12 16 6 23 -16 46 -126 9 -47 15 -57 43 -70
50 -24 67 -85 93 -335 l6 -60 24 28 c28 32 35 24 37 -40 1 -42 -43 -286 -73
-406 -11 -43 -20 -80 -20 -83 0 -10 94 96 106 120 24 43 64 285 64 380 0 136
-21 222 -86 356 -31 63 -65 146 -74 183 -14 52 -28 78 -60 113 -24 26 -38 49
-34 57 27 46 52 71 94 92 26 13 55 31 64 40 20 21 21 71 1 79 -23 8 -18 60 11
118 29 58 28 95 -6 169 -11 24 -20 54 -20 67 0 26 4 26 -130 3 -58 -10 -108
-16 -113 -14 -4 2 1 16 11 31 10 15 25 43 32 62 8 19 36 59 63 89 l50 54 -6
56 c-9 80 0 87 53 45 57 -45 122 -177 140 -285 17 -100 31 -130 88 -192 52
-55 77 -98 107 -184 11 -29 21 -50 24 -48 2 3 23 -23 46 -58 23 -34 70 -88
104 -119 62 -58 174 -128 204 -128 14 0 14 4 2 33 -14 33 -39 236 -31 245 3 2
12 -9 20 -25 26 -47 119 -133 131 -121 3 2 -11 25 -29 51 -42 60 -71 139 -91
251 -22 127 -19 206 11 321 25 95 26 110 22 310 -3 178 -6 215 -21 243 -15 28
-23 33 -42 28 -29 -7 -49 19 -59 77 -6 30 -21 51 -68 95 -33 31 -66 69 -74 84
-35 68 -5 145 92 238 36 35 84 88 105 117 22 29 50 55 63 59 37 9 61 101 52
201 -8 90 1 109 55 127 54 17 62 55 60 290 -2 214 2 239 50 315 16 25 29 53
29 63 0 10 4 18 8 18 24 0 177 -193 227 -285 26 -48 67 -98 128 -157 49 -49
93 -88 97 -88 4 0 27 -44 51 -97 72 -165 157 -342 200 -414 46 -78 80 -109
144 -138 24 -11 68 -44 98 -75 49 -51 58 -56 96 -56 48 0 74 11 114 48 34 33
35 18 3 -71 -16 -43 -45 -93 -85 -142 -44 -55 -65 -92 -77 -133 -23 -83 -42
-132 -69 -173 -24 -37 -44 -92 -70 -199 -18 -71 -49 -114 -181 -252 -41 -43
-74 -82 -74 -87 0 -5 -38 -49 -85 -96 -66 -68 -85 -93 -85 -115 0 -47 -17 -79
-79 -144 -64 -67 -64 -68 -185 -316 -49 -101 -101 -194 -124 -219 l-39 -45
-24 23 c-13 12 -36 29 -50 37 l-27 13 -62 -112 c-152 -271 -261 -391 -435
-477 l-70 -35 -60 -115 c-33 -63 -93 -167 -132 -231 -40 -63 -73 -119 -73
-122 0 -4 7 -7 15 -7 8 0 12 -6 9 -13 -2 -7 24 -57 60 -110 96 -143 96 -169 7
-240 -61 -48 -186 -166 -146 -138 97 69 220 179 228 205 13 40 -4 89 -63 180
-28 42 -50 80 -50 85 0 4 25 25 56 45 90 60 141 113 185 193 l41 74 39 -6 c78
-13 149 45 261 217 35 53 67 97 71 97 5 1 15 -6 23 -14 26 -25 69 -18 118 20
25 19 83 59 129 88 120 79 256 224 289 312 l15 39 18 -59 c37 -129 81 -184
175 -221 27 -11 68 -41 102 -76 52 -52 62 -58 100 -58 38 0 47 -5 102 -63 33
-34 74 -72 90 -84 35 -27 82 -30 108 -6 17 16 20 15 54 -18 19 -19 66 -75 104
-125 64 -85 121 -144 139 -144 21 0 80 -74 106 -133 30 -66 30 -67 63 -61 31
6 38 1 130 -92 53 -55 144 -142 202 -193 162 -146 241 -229 298 -314 62 -94
69 -137 22 -137 -46 0 -67 -38 -50 -92 15 -52 114 -153 186 -188 86 -44 131
-83 178 -154 54 -81 61 -75 11 10 -42 71 -85 111 -167 154 -98 52 -196 167
-186 218 2 11 17 19 42 23 63 10 71 42 30 122 -59 119 -106 173 -374 432 -85
83 -171 169 -190 192 -38 44 -95 83 -121 83 -9 0 -24 18 -35 42 -25 56 -56 91
-120 139 -29 21 -79 74 -111 116 -72 98 -136 167 -181 195 -34 21 -35 21 -48
3 -8 -10 -14 -22 -14 -27 0 -26 -46 1 -101 60 -78 81 -108 102 -152 102 -27 0
-42 9 -80 50 -29 31 -68 60 -104 76 -99 43 -123 78 -173 252 l-21 73 30 28
c24 23 31 38 31 68 0 54 11 67 51 60 19 -2 48 1 66 8 27 12 33 20 38 60 6 37
14 51 44 72 20 15 50 40 67 55 21 20 47 31 86 37 94 16 133 29 194 70 74 48
98 75 116 128 11 34 26 50 75 83 79 52 141 122 184 204 28 54 44 71 93 102 72
47 114 108 151 224 15 47 36 94 45 105 41 45 62 104 56 148 -5 30 -1 62 14
108 11 35 20 73 20 84 0 17 3 15 19 -10 33 -52 86 -96 179 -143 84 -44 183
-122 270 -213 21 -23 52 -78 80 -145 45 -107 63 -139 175 -317 31 -48 57 -93
59 -99 6 -17 45 0 102 46 100 82 100 82 150 56 51 -28 77 -21 142 35 46 41 56
43 69 13 14 -31 53 -48 138 -60 99 -13 140 -40 251 -164 114 -128 183 -182
301 -239 133 -65 198 -79 327 -71 58 3 117 2 130 -3 12 -5 46 -31 73 -58 39
-37 66 -53 121 -71 90 -28 143 -74 219 -187 81 -119 158 -187 300 -265 81 -44
137 -82 173 -118 28 -29 52 -57 52 -62 0 -5 13 -29 29 -52 15 -24 45 -72 66
-108 22 -35 48 -76 59 -90 37 -45 150 -155 216 -211 103 -86 218 -205 234
-241 l14 -33 1 28 c1 15 -10 49 -23 75 -13 26 -26 70 -29 97 -3 30 -25 90 -52
147 -26 54 -50 118 -52 143 l-6 45 37 0 c24 0 36 5 36 14 0 15 -43 84 -68 107
-9 8 -39 38 -65 66 -49 50 -49 51 -32 77 21 32 14 78 -21 149 -48 93 -236 362
-303 432 -82 86 -109 129 -117 188 -6 39 -1 57 35 134 22 50 41 102 41 116 0
21 5 27 21 27 18 0 19 3 9 15 -30 36 32 47 114 19 27 -9 83 -34 126 -54 81
-40 140 -60 178 -60 21 0 22 4 22 65 0 120 -39 154 -152 135 -81 -14 -91 -10
-172 73 -33 33 -93 86 -133 118 -71 57 -73 58 -125 53 -46 -5 -63 -1 -125 30
-91 44 -181 104 -241 162 -25 24 -48 44 -50 44 -8 0 9 -73 23 -100 7 -14 41
-62 74 -108 95 -127 183 -316 167 -358 -3 -8 -14 -14 -26 -14 -15 0 -21 -9
-26 -39 -5 -31 -11 -41 -28 -43 -17 -2 -22 -11 -24 -47 -5 -68 35 -159 154
-346 24 -38 44 -73 44 -77 0 -17 -39 -6 -78 21 -31 23 -41 27 -46 16 -3 -8
-12 -12 -21 -9 -22 9 -19 -1 19 -54 19 -26 64 -108 99 -182 36 -74 78 -151 95
-170 31 -35 58 -90 43 -90 -4 0 -25 13 -47 29 -21 15 -70 45 -109 66 -146 79
-185 114 -292 266 -80 115 -106 150 -195 269 -114 154 -126 245 -46 347 110
140 112 153 39 261 -27 40 -51 78 -53 84 -3 8 -10 8 -25 -1 -57 -30 -159 -1
-165 48 -3 24 -8 26 -63 31 -54 5 -61 8 -74 34 -8 16 -17 73 -21 125 -7 106
-21 137 -75 171 -39 24 -82 84 -96 134 -5 19 -19 40 -29 46 -36 19 -19 100 20
100 10 0 21 -4 24 -9 4 -5 26 -19 50 -31 29 -13 61 -42 92 -83 26 -34 78 -84
116 -112 50 -36 84 -72 123 -130 69 -101 94 -133 95 -118 1 87 36 300 60 377
33 104 58 134 127 156 21 7 46 19 55 28 16 13 21 12 54 -17 20 -18 86 -56 147
-86 136 -65 161 -89 183 -177 16 -63 17 -66 46 -64 27 1 31 -4 49 -49 10 -27
19 -60 19 -72 0 -32 15 -29 54 12 72 74 158 34 207 -97 18 -47 24 -83 24 -145
0 -49 4 -83 10 -83 6 0 23 12 38 26 21 19 32 23 40 15 18 -18 36 -13 77 20 24
19 47 29 61 27 14 -2 51 -36 97 -90 40 -48 108 -116 150 -150 42 -34 107 -94
145 -132 43 -45 67 -64 67 -53 0 9 -20 68 -44 129 -51 128 -82 246 -70 258 5
5 36 -4 69 -20 75 -37 175 -60 257 -60 62 0 64 -1 83 -36 38 -71 193 -199 265
-219 14 -3 1 8 -28 25 -69 40 -171 142 -207 207 -29 51 -29 52 -90 58 -143 16
-251 53 -321 110 l-42 35 -11 -30 c-5 -17 -14 -30 -18 -30 -4 0 -26 22 -47 48
-102 121 -179 186 -306 256 -69 37 -145 85 -169 105 -24 20 -87 67 -140 105
-109 79 -111 81 -135 119 -10 15 -21 27 -25 27 -8 0 -41 -65 -41 -81 0 -5 -7
-26 -15 -45 l-15 -36 -45 40 c-29 25 -91 60 -168 94 -67 29 -139 68 -159 86
-36 32 -37 33 -48 13 -6 -12 -16 -21 -22 -21 -10 0 -168 124 -215 168 -34 34
-153 189 -153 201 0 17 -15 13 -35 -9 -10 -11 -26 -20 -37 -20 -22 0 -95 64
-103 91 -4 10 -12 19 -18 19 -19 0 -165 -77 -211 -110 -44 -33 -48 -31 -65 20
-6 19 -22 48 -36 64 l-24 29 -35 -31 c-50 -43 -138 -102 -228 -151 l-78 -43 0
48 0 48 -35 -34 c-19 -18 -70 -84 -114 -145 -91 -128 -125 -161 -242 -236
-130 -84 -189 -127 -306 -222 -170 -139 -276 -192 -314 -155 -108 103 -205
179 -274 213 -96 48 -178 126 -196 185 -7 22 -16 39 -20 38 -4 -2 -39 -33 -77
-70 -120 -113 -133 -117 -175 -51 -30 47 -53 72 -92 102 -36 27 -137 160 -166
219 -11 23 -25 42 -29 42 -23 0 -70 -25 -112 -61 -53 -44 -89 -50 -116 -18
-39 49 -78 80 -126 103 -66 30 -88 50 -126 116 -50 88 -209 420 -225 470 -4
13 -33 46 -64 74 -108 97 -156 151 -189 214 -18 34 -61 97 -95 140 -62 79
-176 202 -186 202 -3 0 -31 -24 -61 -53z m-2564 -899 c15 -30 15 -32 -2 -45
-39 -29 -55 -1 -38 64 8 28 19 22 40 -19z m3914 -472 c35 -48 88 -109 117
-134 29 -25 55 -53 58 -62 3 -10 23 -36 45 -60 l39 -42 -30 -48 c-16 -26 -29
-50 -29 -54 0 -4 -21 -38 -46 -77 -71 -107 -160 -193 -359 -345 -39 -30 -186
-116 -191 -112 -2 3 7 25 21 49 36 65 51 114 79 251 20 98 35 143 75 220 27
54 51 103 54 110 6 18 84 -67 106 -115 25 -52 29 -37 36 130 6 129 5 144 -19
225 -30 101 -43 178 -29 163 5 -5 38 -50 73 -99z m2033 57 c-3 -16 -13 -74
-24 -131 -20 -110 -24 -162 -11 -162 4 0 23 16 42 35 18 19 47 37 64 41 29 6
75 33 104 61 74 72 3 -220 -75 -309 -20 -23 -51 -7 -65 33 -18 52 -26 31 -30
-78 -3 -95 -7 -115 -33 -168 -36 -74 -44 -149 -20 -194 27 -54 17 -62 -59 -41
-36 9 -81 29 -100 44 -19 14 -45 26 -58 26 -21 0 -23 -3 -20 -49 l4 -49 -40 5
c-35 5 -46 1 -94 -36 -60 -45 -74 -48 -104 -26 -43 33 -107 9 -198 -74 -27
-25 -29 -25 -40 -8 -6 11 -40 62 -75 115 -73 112 -96 156 -140 267 -18 44 -38
90 -46 101 -13 21 -12 22 26 28 71 11 170 69 356 208 50 37 94 68 97 68 8 0
187 109 224 137 37 28 49 25 33 -5 -6 -12 -11 -38 -11 -59 l0 -38 28 35 c15
19 51 58 81 85 30 28 82 76 115 107 34 32 64 58 67 58 3 0 4 -12 2 -27z
m-5397 -61 l43 -37 -38 -19 -38 -18 -41 43 c-43 46 -51 64 -29 73 23 10 60 -5
103 -42z m-3382 -346 c-9 -15 -19 -24 -22 -22 -2 3 3 17 12 32 10 14 20 23 23
21 2 -3 -3 -17 -13 -31z m-1407 -163 c29 -46 53 -85 53 -88 0 -27 -90 59 -112
107 -9 18 -19 46 -22 62 -7 27 -6 28 10 15 10 -8 41 -51 71 -96z m-279 -747
c15 -8 47 -36 70 -63 41 -44 44 -51 38 -89 -3 -23 -17 -68 -31 -99 -17 -40
-25 -75 -25 -116 0 -48 -4 -60 -22 -73 -12 -9 -29 -16 -38 -16 -8 0 -20 -10
-26 -23 -7 -12 -22 -41 -34 -65 l-22 -43 46 -92 c40 -81 46 -100 46 -157 0
-51 4 -68 21 -87 l22 -22 -20 -53 c-18 -48 -19 -57 -7 -98 20 -66 18 -67 -21
-19 -44 55 -70 125 -79 209 -8 73 -25 107 -94 189 -77 90 -172 251 -172 292 0
30 22 52 65 66 41 13 42 35 6 85 -38 52 -39 82 -2 139 71 112 201 175 279 135z"/>
<path d="M11141 6059 c-8 -24 -7 -49 5 -108 11 -52 15 -106 11 -171 -4 -86 -8
-103 -45 -178 -69 -142 -66 -175 27 -290 56 -69 78 -130 89 -240 l7 -67 14 59
c7 32 26 79 42 104 16 25 29 52 29 59 0 7 -15 41 -33 76 -31 58 -34 71 -40
187 -5 96 -3 141 9 195 34 151 30 182 -39 338 -34 76 -58 88 -76 36z"/>
<path d="M11555 5169 c-13 -122 -43 -226 -98 -336 -72 -143 -75 -169 -37 -284
37 -114 37 -140 0 -234 -34 -86 -114 -248 -141 -286 -10 -15 -21 -52 -24 -85
-3 -33 -8 -72 -10 -89 -4 -30 -4 -30 12 5 8 19 43 76 77 125 128 185 153 240
196 428 l23 99 -23 73 -23 73 22 41 c11 23 30 58 41 79 34 65 53 160 46 232
-12 117 -18 150 -36 187 l-18 37 -7 -65z"/>
<path d="M12864 4846 c4 -21 27 -87 52 -147 48 -117 53 -157 29 -235 -24 -81
-19 -121 25 -199 22 -38 49 -90 61 -115 29 -64 42 -89 135 -245 86 -147 122
-235 131 -322 3 -29 10 -50 14 -47 16 10 9 63 -20 156 -21 67 -30 121 -34 193
-4 86 -12 121 -55 250 -28 83 -69 184 -91 225 -44 81 -54 147 -26 170 13 11
12 16 -11 43 -14 16 -36 51 -49 76 -33 66 -118 192 -145 216 l-23 20 7 -39z"/>
<path d="M12780 4454 c0 -16 -9 -63 -21 -104 -27 -98 -22 -139 34 -280 63
-162 117 -434 117 -596 0 -29 5 -54 10 -54 6 0 10 6 10 13 0 8 11 24 24 36 23
22 24 25 10 46 -22 34 -27 107 -16 246 12 140 8 177 -15 158 -20 -17 -26 -7
-66 111 -26 79 -40 147 -56 274 -20 162 -31 214 -31 150z"/>
<path d="M17730 4024 c-19 -13 -40 -22 -47 -20 -7 3 -10 0 -8 -7 5 -14 -75
-67 -101 -67 -13 0 -30 -21 -54 -66 -62 -118 -200 -242 -322 -291 -67 -27
-118 -58 -178 -110 -91 -78 -264 -278 -302 -348 -6 -11 42 35 108 101 183 187
282 264 388 303 135 50 268 162 341 287 21 35 42 64 47 64 6 0 64 -23 130 -51
66 -28 146 -54 177 -59 77 -11 191 -58 191 -79 0 -9 18 -36 40 -61 67 -75 54
-121 -48 -155 l-37 -13 -1 -69 c0 -51 -8 -86 -31 -143 -17 -41 -34 -92 -37
-112 -6 -35 -5 -38 29 -53 66 -32 140 -127 200 -257 77 -168 32 -585 -90 -828
-36 -73 -68 -106 -137 -141 -115 -58 -189 -82 -263 -83 -62 0 -79 4 -155 41
-143 68 -233 103 -273 103 -13 0 -9 -8 18 -31 19 -17 35 -36 35 -43 0 -21
-160 -119 -234 -144 -138 -46 -336 -92 -404 -93 l-67 -1 37 -16 c21 -10 38
-22 38 -28 0 -6 -22 -32 -48 -57 -64 -59 -119 -72 -307 -70 -196 1 -289 28
-481 140 -100 59 -246 94 -314 76 l-35 -10 55 -27 c63 -32 157 -99 182 -130
10 -12 18 -38 18 -62 l0 -40 -127 -17 c-265 -34 -499 -82 -527 -107 -5 -5 9
-23 30 -42 106 -92 158 -147 144 -151 -8 -2 -35 -10 -60 -16 -25 -7 -67 -19
-95 -27 -27 -8 -84 -14 -125 -14 -137 0 -209 -36 -195 -99 6 -26 4 -28 -102
-63 -59 -20 -140 -41 -179 -46 -39 -6 -85 -17 -101 -26 -32 -16 -99 -93 -90
-102 3 -3 27 10 54 29 60 44 149 63 215 47 78 -19 203 -59 188 -60 -8 -1 -26
-3 -39 -3 -19 -2 -27 -10 -33 -36 -14 -50 -100 -131 -190 -176 -43 -22 -78
-45 -78 -51 0 -6 16 -29 35 -50 41 -44 42 -48 14 -82 -20 -26 -20 -27 -2 -30
51 -9 90 -28 129 -64 44 -40 57 -69 69 -146 10 -61 32 -51 60 28 52 147 66
170 166 257 123 105 134 126 123 223 l-9 75 -39 -3 c-63 -5 -133 16 -140 41
-10 39 -7 45 47 71 39 19 79 28 162 36 62 5 147 21 195 36 155 47 182 53 299
64 64 6 158 18 210 26 52 8 95 13 97 11 2 -1 -49 -24 -112 -51 -122 -51 -177
-87 -167 -111 7 -21 32 -19 68 5 32 21 97 26 137 11 13 -5 35 -21 51 -36 33
-33 34 -67 7 -145 -11 -30 -19 -66 -20 -79 0 -23 2 -24 63 -18 84 8 107 1 162
-44 26 -21 57 -39 69 -39 34 0 65 -40 76 -99 5 -30 10 -56 10 -60 0 -3 11 13
25 37 35 62 53 131 61 230 l6 87 -41 78 c-23 43 -51 108 -62 145 -23 75 -48
108 -96 128 -18 8 -33 21 -33 29 0 8 30 31 68 52 37 21 91 52 121 70 98 59
189 91 311 107 63 9 129 19 147 22 l32 6 -28 -53 c-16 -30 -35 -73 -42 -96
-16 -55 -7 -65 96 -113 88 -41 163 -102 203 -164 21 -33 27 -57 30 -122 l4
-81 52 -7 c28 -3 97 -6 153 -6 133 0 190 -20 268 -96 32 -30 59 -53 61 -51 3
2 -1 49 -8 105 -12 96 -15 102 -53 144 -62 67 -76 94 -80 158 -10 159 -79 247
-195 249 -31 1 -37 5 -45 33 -13 42 -54 65 -151 83 -43 9 -79 17 -81 18 -1 2
1 23 5 47 6 37 13 46 47 64 35 18 65 22 225 28 186 6 220 11 361 49 69 18 84
19 136 9 116 -24 114 -21 39 -100 -95 -101 -92 -104 62 -66 121 30 223 46 300
46 48 0 62 -4 79 -22 37 -41 46 -71 51 -163 6 -125 -29 -247 -105 -367 -13
-21 -20 -38 -16 -38 5 0 37 25 73 56 88 75 180 144 192 144 10 0 8 -17 -8 -54
-4 -11 36 18 90 65 53 46 118 95 144 109 75 40 183 155 207 220 34 94 18 303
-29 372 -20 30 -63 59 -109 72 -18 6 -18 7 0 37 10 17 40 47 67 68 89 66 143
120 161 160 20 46 87 92 167 116 82 24 99 19 47 -13 -95 -60 -149 -123 -149
-172 0 -27 26 -26 66 5 18 14 37 25 42 25 6 0 17 -32 26 -72 15 -66 93 -216
134 -257 19 -20 29 -2 38 67 5 38 18 71 51 120 50 77 50 81 -2 187 -19 39 -35
79 -36 90 -3 46 2 66 19 72 31 11 115 68 192 130 86 68 178 121 271 156 35 13
73 28 84 32 16 7 15 3 -7 -22 -16 -17 -28 -40 -28 -56 0 -15 -15 -47 -35 -73
-19 -25 -35 -51 -35 -58 0 -22 46 -57 84 -63 50 -8 68 -38 74 -123 2 -39 9
-70 15 -70 15 0 1 -192 -21 -277 -10 -40 -17 -73 -16 -73 8 0 177 264 190 297
9 21 27 63 41 93 39 83 44 177 10 212 -7 7 -20 31 -29 53 -54 129 -19 187 167
276 44 21 117 59 163 84 l82 46 0 -29 c0 -16 10 -58 22 -93 37 -109 27 -239
-24 -343 -15 -29 -17 -41 -8 -46 9 -5 4 -20 -16 -51 -19 -31 -29 -63 -34 -109
-7 -72 -18 -99 -53 -127 -13 -10 -29 -28 -35 -40 -16 -29 -14 -124 3 -203 8
-36 14 -97 15 -136 0 -66 -4 -79 -54 -182 -30 -60 -66 -145 -80 -189 -90 -282
-112 -353 -108 -353 2 0 17 11 33 24 16 14 74 48 130 77 67 35 129 79 186 129
84 74 84 75 56 81 -15 4 -45 7 -65 8 -30 1 -38 5 -38 19 0 34 30 107 55 134
104 112 215 386 215 527 0 31 -10 88 -21 126 -11 39 -23 97 -26 130 -4 51 -2
64 17 88 28 35 90 67 130 67 26 0 30 -3 30 -28 0 -29 24 -72 41 -72 19 0 51
96 66 195 20 140 54 208 154 315 46 49 241 190 263 190 9 0 34 -97 41 -150 8
-75 23 -126 40 -143 7 -8 15 -36 17 -63 l3 -49 24 50 c61 130 119 193 165 181
54 -13 206 -164 257 -256 9 -17 16 -74 20 -170 3 -89 11 -156 19 -172 l13 -27
56 39 c31 22 71 54 88 70 l33 31 -29 58 c-41 80 -61 165 -61 255 0 42 2 76 5
76 3 0 44 -6 92 -14 49 -8 111 -17 139 -20 l51 -6 6 36 c3 20 18 51 32 69 14
19 25 38 25 44 0 26 -144 153 -254 225 -65 43 -138 97 -161 120 -42 43 -122
172 -112 182 3 3 13 -8 22 -26 30 -58 100 -114 249 -200 139 -80 188 -118 263
-205 26 -30 37 -36 56 -31 27 6 50 -15 80 -75 10 -20 59 -87 109 -150 49 -63
106 -138 125 -167 34 -50 67 -82 87 -82 5 0 -4 10 -20 22 -16 13 -30 26 -32
29 -11 25 -106 158 -159 223 -36 44 -78 105 -93 137 -37 73 -54 89 -94 89 -28
0 -39 8 -72 52 -47 63 -96 101 -250 193 -125 75 -184 125 -227 193 -27 42
-177 195 -208 212 -12 7 -23 3 -40 -12 -13 -11 -64 -51 -114 -88 -131 -97
-247 -140 -430 -160 -151 -16 -223 -54 -382 -203 -50 -47 -100 -90 -111 -96
-39 -21 -125 -22 -217 -3 -49 11 -94 15 -99 11 -6 -5 -5 -19 2 -34 9 -20 9
-27 -1 -30 -77 -25 -138 -35 -205 -35 -105 0 -114 -4 -106 -44 5 -28 2 -34
-21 -44 -43 -20 -55 -15 -55 21 0 40 -21 72 -62 93 -26 13 -49 15 -124 10 -86
-7 -93 -6 -103 13 -14 26 -7 43 30 70 28 21 30 26 24 65 -8 49 7 86 48 125 21
19 36 23 81 22 30 0 71 -7 92 -16 20 -8 38 -15 41 -15 2 0 -16 26 -41 58 -50
63 -54 77 -30 86 30 11 48 6 114 -33 153 -91 298 -129 374 -97 21 9 40 16 42
16 3 0 147 -114 188 -149 18 -15 18 -15 8 4 -5 11 -21 29 -34 40 -113 96 -160
135 -167 135 -4 0 -23 -7 -40 -16 -62 -31 -185 5 -335 98 -58 36 -94 51 -140
58 -144 22 -139 19 -214 107 -35 41 -95 54 -232 51 -86 -2 -132 1 -147 10 -12
7 -47 44 -78 82 -50 62 -61 71 -113 86 -81 23 -85 26 -102 73 -19 50 -72 111
-124 142 -34 20 -57 24 -178 28 l-139 6 -67 72 c-105 113 -116 117 -372 124
-118 4 -233 11 -255 18 -69 18 -136 13 -175 -15z m663 -74 c31 -16 54 -36 62
-55 8 -16 29 -49 47 -73 43 -57 45 -113 6 -147 -24 -21 -25 -25 -15 -63 8 -31
8 -44 -2 -56 -23 -27 -123 -16 -156 18 -42 42 -105 86 -150 105 -27 12 -81 37
-120 56 -38 19 -83 39 -98 45 -35 12 -34 50 1 65 25 11 27 29 7 65 -20 35 -19
38 18 55 25 11 69 14 192 12 148 -2 164 -5 208 -27z m469 -200 c87 -24 143
-149 102 -225 -17 -33 -17 -33 18 -108 20 -41 39 -97 43 -126 4 -28 10 -53 14
-55 7 -5 49 195 54 255 2 35 3 35 34 27 23 -6 49 -29 88 -78 78 -97 96 -104
271 -101 139 2 140 2 166 -24 43 -42 41 -60 -5 -81 -46 -21 -82 -54 -92 -82
-3 -11 6 -59 20 -107 14 -48 25 -95 25 -105 0 -32 -34 -50 -106 -56 -38 -3
-106 -17 -150 -30 -100 -29 -143 -30 -217 -4 -31 11 -66 20 -77 20 -20 0 -79
25 -90 39 -3 3 -24 24 -48 45 l-42 40 2 -47 c1 -26 -3 -52 -10 -59 -38 -38
-167 109 -287 325 l-38 69 16 71 c9 40 19 110 22 157 3 47 13 111 21 143 8 32
12 62 8 68 -3 6 2 17 12 24 23 17 190 20 246 5z m2458 -704 c0 -54 -17 -85
-39 -71 -6 3 -48 -6 -93 -21 -46 -14 -88 -28 -95 -30 -6 -1 -16 -26 -22 -55
-15 -70 -46 -138 -78 -171 -28 -30 -59 -38 -50 -14 3 8 9 30 12 49 l7 35 -90
21 c-49 12 -102 21 -118 21 -27 0 -23 5 56 80 91 86 167 141 227 167 36 15
181 39 251 42 l32 1 0 -54z"/>
<path d="M12530 4038 c0 -2 11 -33 25 -67 50 -123 90 -274 119 -446 2 -16 3
10 1 59 -3 57 -1 86 5 80 6 -6 32 -61 60 -123 27 -63 52 -116 55 -119 3 -3 5
10 5 30 0 54 -33 138 -99 253 -33 57 -74 146 -91 198 -19 58 -41 103 -56 117
-13 13 -24 21 -24 18z"/>
<path d="M13791 3954 c-1 -25 -31 -54 -56 -54 -10 0 -33 5 -52 12 -18 6 -35 9
-38 6 -11 -11 87 -269 159 -418 20 -41 36 -88 37 -105 0 -26 2 -27 9 -10 15
35 11 141 -10 245 -10 56 -22 147 -26 203 -6 96 -22 175 -23 121z"/>
<path d="M12360 3941 c0 -10 11 -71 24 -134 26 -122 72 -227 106 -239 11 -4
33 -31 49 -60 17 -29 31 -51 31 -48 0 5 -50 145 -87 245 -8 21 -13 55 -12 75
3 60 0 67 -46 117 -24 26 -45 51 -45 56 0 17 -20 5 -20 -12z"/>
<path d="M9616 3825 c-47 -131 -39 -195 68 -560 l24 -80 6 110 c15 231 24 299
52 359 14 31 24 59 21 62 -3 3 -17 -6 -32 -20 -16 -15 -32 -26 -36 -26 -5 0
-13 19 -19 43 -6 23 -20 67 -30 97 -11 30 -21 64 -22 75 -2 12 -15 -13 -32
-60z"/>
<path d="M14120 3862 c0 -15 11 -81 25 -147 17 -84 25 -152 25 -227 0 -135 6
-150 131 -337 111 -168 134 -210 166 -306 l23 -70 -8 75 c-4 41 -6 215 -5 385
0 171 -1 303 -4 295 -12 -31 -64 -100 -84 -111 -51 -27 -80 8 -109 131 -11 48
-145 340 -156 340 -2 0 -4 -12 -4 -28z"/>
<path d="M11206 3749 c-10 -27 -16 -52 -13 -55 3 -3 13 18 22 46 22 67 14 75
-9 9z"/>
<path d="M8803 3635 c-124 -92 -312 -318 -387 -464 l-18 -33 36 -30 c79 -65
115 -192 151 -531 4 -32 9 -57 11 -54 6 5 27 106 59 279 40 218 72 307 147
406 43 56 58 61 119 41 41 -14 169 -97 169 -110 0 -5 5 -9 11 -9 28 0 -32 146
-120 294 -60 102 -78 141 -93 205 -6 28 -15 51 -19 51 -4 0 -34 -20 -66 -45z"/>
<path d="M12053 3624 c-16 -86 -29 -114 -53 -114 -11 0 -20 -4 -20 -8 0 -20
80 -124 172 -226 15 -16 44 -54 65 -85 21 -31 40 -58 43 -61 20 -18 79 -126
121 -222 49 -111 106 -208 122 -208 8 0 4 21 -13 65 -5 11 -29 51 -54 90 -43
66 -93 203 -177 479 -15 53 -35 88 -81 145 -33 42 -69 96 -79 121 -11 25 -23
53 -27 64 -6 14 -11 4 -19 -40z"/>
<path d="M11827 3354 c4 -54 2 -77 -11 -102 l-17 -32 -49 39 c-46 37 -104 60
-117 47 -3 -3 16 -38 43 -78 26 -40 69 -104 94 -143 29 -44 77 -95 128 -139
71 -59 84 -76 103 -127 25 -69 39 -83 39 -40 0 18 5 31 13 31 27 0 122 -62
193 -125 59 -52 114 -92 114 -81 0 17 -94 194 -122 228 -17 21 -58 58 -92 80
-33 23 -66 47 -71 52 -41 43 -84 112 -133 213 -32 65 -72 147 -89 183 l-32 65
6 -71z"/>
<path d="M13546 3333 c3 -38 9 -112 15 -166 11 -121 12 -224 0 -231 -4 -3 -24
3 -45 13 -48 25 -46 10 8 -58 23 -31 51 -79 60 -108 22 -67 41 -90 126 -153
39 -29 91 -79 116 -112 26 -32 48 -57 51 -55 11 12 -89 281 -159 426 -49 103
-51 109 -57 221 -5 82 -12 125 -26 150 -20 39 -86 140 -91 140 -2 0 -1 -30 2
-67z"/>
<path d="M12650 3267 c0 -2 20 -55 45 -118 25 -63 45 -118 46 -124 0 -11 57
-133 58 -125 2 14 -92 277 -114 320 -22 43 -35 60 -35 47z"/>
<path d="M11393 3044 c-13 -35 9 -150 44 -229 47 -103 51 -164 24 -332 -12
-71 -21 -145 -21 -164 1 -55 34 -114 106 -186 37 -38 84 -94 105 -126 48 -73
110 -234 138 -352 17 -74 61 -369 61 -408 0 -7 5 -6 13 2 9 9 11 70 9 249 -1
130 0 247 3 260 10 43 104 26 163 -31 17 -17 32 -37 32 -45 0 -9 16 0 40 22
35 32 46 36 92 36 73 0 131 -31 216 -117 39 -40 72 -70 72 -67 0 2 -12 33 -26
67 -15 34 -66 168 -114 297 l-88 235 -142 -4 c-161 -4 -209 6 -265 51 -45 37
-72 80 -114 178 -44 102 -330 680 -336 680 -3 0 -8 -7 -12 -16z"/>
<path d="M8211 2957 c-16 -47 -67 -104 -114 -129 -61 -31 -85 -66 -148 -223
l-37 -89 -32 67 c-18 36 -40 73 -50 82 -15 13 -16 8 -12 -73 3 -72 0 -97 -18
-147 -12 -33 -39 -116 -60 -185 -47 -155 -53 -172 -89 -224 -41 -59 -85 -100
-174 -163 -73 -52 -87 -73 -49 -73 35 1 125 58 219 140 161 140 186 169 212
240 13 36 50 108 82 160 32 52 67 127 79 165 11 39 28 93 36 120 9 28 37 86
64 130 58 97 95 171 104 208 9 38 0 34 -13 -6z"/>
<path d="M14492 2750 c0 -14 2 -19 5 -12 2 6 2 18 0 25 -3 6 -5 1 -5 -13z"/>
<path d="M12420 2595 c0 -26 130 -175 152 -175 15 0 91 -75 143 -140 29 -36
72 -84 96 -107 24 -23 70 -67 102 -97 32 -30 86 -77 120 -102 90 -69 135 -122
202 -237 95 -163 160 -261 163 -244 4 19 -24 74 -82 165 -42 64 -86 145 -86
157 0 14 25 1 64 -35 38 -35 44 -38 48 -22 4 14 -20 44 -88 111 -98 97 -117
118 -93 109 136 -54 138 -53 24 22 -67 44 -154 125 -265 250 -137 154 -167
177 -279 215 -52 17 -93 41 -141 80 -63 52 -80 62 -80 50z"/>
<path d="M10496 2211 c-7 -46 8 -175 29 -248 17 -56 38 -76 92 -88 35 -7 55
-26 103 -93 25 -35 34 -41 54 -36 24 6 24 5 31 -100 8 -119 1 -206 -23 -285
-21 -65 -40 -81 -76 -61 -26 13 -56 85 -56 134 0 42 -13 47 -113 49 l-96 2
-12 43 c-6 23 -17 41 -23 39 -15 -5 -20 -74 -6 -107 6 -14 17 -70 25 -124 13
-99 33 -146 61 -146 8 0 30 11 48 25 43 33 70 32 116 -5 42 -33 80 -50 115
-50 26 0 65 -42 65 -71 0 -11 6 -19 14 -19 8 0 18 -9 21 -20 3 -11 14 -27 23
-37 9 -9 29 -44 43 -79 15 -34 37 -77 50 -96 l24 -33 6 30 c18 82 -5 502 -27
498 -5 -1 -17 -5 -26 -8 -39 -15 -52 121 -21 228 l16 60 24 -29 23 -29 0 25
c0 40 -35 186 -74 312 -20 65 -39 138 -43 163 -5 39 -9 45 -25 39 -10 -3 -30
1 -43 10 -13 9 -44 16 -69 16 -25 0 -48 5 -52 11 -4 7 -21 9 -40 6 -30 -5 -40
0 -84 42 -28 26 -50 53 -50 60 0 28 -18 7 -24 -28z"/>
<path d="M19691 2234 c0 -12 -15 -37 -32 -55 -105 -116 -114 -180 -37 -263 44
-48 47 -135 7 -243 -12 -30 -19 -56 -17 -58 8 -9 70 98 99 172 35 86 77 172
108 217 24 35 23 38 -58 137 -33 40 -62 82 -64 94 -4 20 -4 20 -6 -1z"/>
<path d="M22219 1951 c-30 -23 -127 -75 -168 -89 -17 -6 -31 -18 -31 -26 0 -8
-12 -32 -26 -53 -50 -74 -95 -185 -96 -238 -2 -69 16 -98 117 -190 96 -87 124
-125 163 -224 25 -63 26 -74 24 -233 -1 -133 1 -168 12 -168 14 0 120 108 181
185 22 27 52 63 67 80 16 16 28 33 28 37 0 8 -27 0 -45 -12 -5 -3 -30 -12 -54
-19 -63 -18 -69 -7 -43 83 33 112 29 133 -34 193 -91 86 0 162 195 164 106 1
91 15 -19 18 -73 1 -71 0 -156 119 -85 121 -89 132 -89 270 0 67 -1 122 -1
122 -1 0 -12 -8 -25 -19z"/>
<path d="M13313 1914 c3 -3 29 -21 59 -39 29 -19 58 -38 63 -43 15 -12 52 -25
40 -14 -20 19 -149 102 -159 102 -5 0 -7 -3 -3 -6z"/>
<path d="M13520 1784 c0 -9 111 -57 117 -50 3 3 -19 17 -51 31 -60 26 -66 28
-66 19z"/>
</g>
</svg>
