<?xml version="1.0" standalone="no"?>
<!DOCTYPE svg PUBLIC "-//W3C//DTD SVG 20010904//EN"
 "http://www.w3.org/TR/2001/REC-SVG-20010904/DTD/svg10.dtd">
<svg version="1.0" xmlns="http://www.w3.org/2000/svg"
 width="2291.000000pt" height="686.000000pt" viewBox="0 0 2291.000000 686.000000"
 preserveAspectRatio="xMidYMid meet">

<g transform="translate(0.000000,686.000000) scale(0.100000,-0.100000)"
fill="#000000" stroke="none">
<path d="M11044 5579 c-10 -12 -74 -69 -142 -127 -69 -59 -134 -124 -148 -147
-29 -51 -75 -88 -174 -143 -106 -58 -133 -89 -170 -200 -17 -50 -39 -107 -50
-125 -10 -17 -24 -66 -31 -107 -7 -41 -17 -85 -23 -96 -22 -43 -125 -144 -146
-144 -43 0 -78 -31 -131 -112 -76 -120 -329 -380 -422 -436 -84 -50 -114 -82
-156 -166 -47 -93 -76 -133 -200 -270 -69 -75 -122 -126 -133 -126 -32 0 -71
26 -131 88 -37 38 -50 58 -38 55 25 -6 52 36 82 127 12 36 32 86 45 112 13 26
35 77 49 114 14 38 33 76 42 86 26 29 -4 22 -58 -13 -86 -55 -113 -27 -85 83
23 91 22 90 49 75 60 -33 136 -130 206 -263 18 -34 46 -77 62 -95 l30 -34 -24
35 c-13 19 -47 80 -76 135 -58 113 -142 231 -172 240 -11 4 -32 19 -48 33 -76
74 -102 92 -135 92 -27 0 -36 5 -45 28 -6 15 -22 41 -35 57 l-24 30 -20 -25
c-19 -23 -21 -24 -39 -9 -10 9 -41 28 -70 43 -75 37 -90 58 -98 129 -7 66 -23
100 -62 132 -13 11 -31 35 -41 54 -13 27 -28 38 -64 50 -25 9 -56 24 -67 35
-16 14 -29 17 -58 13 -43 -7 -68 5 -155 74 -28 22 -65 47 -81 55 -29 15 -30
15 -71 -24 -22 -21 -67 -58 -99 -81 -32 -24 -70 -61 -85 -83 -69 -104 -178
-198 -229 -198 -46 0 -95 -31 -161 -100 -37 -39 -93 -87 -124 -106 -61 -37
-92 -69 -123 -127 -21 -40 -41 -50 -127 -67 -64 -13 -144 -61 -167 -102 -10
-16 -25 -28 -37 -28 -40 0 -142 -60 -176 -103 -17 -23 -32 -43 -32 -44 -1 -1
-30 5 -66 14 -77 17 -146 50 -215 102 -63 48 -87 57 -212 81 -56 10 -112 24
-123 30 -19 10 -23 6 -50 -54 l-30 -65 -32 11 c-18 6 -44 18 -57 27 -18 12
-26 12 -29 3 -10 -31 -44 -55 -122 -87 -46 -19 -93 -44 -103 -54 -10 -10 -31
-63 -47 -118 -15 -55 -35 -116 -45 -137 -17 -36 -67 -72 -84 -62 -15 10 -53
-96 -55 -150 l-1 -51 -61 5 c-77 6 -100 -6 -126 -66 -12 -26 -37 -67 -58 -92
-48 -59 -49 -60 -60 -121 -13 -67 -37 -92 -116 -120 -34 -12 -100 -49 -146
-81 -46 -32 -133 -91 -194 -132 -62 -41 -122 -85 -134 -98 -12 -13 -42 -61
-66 -108 -24 -47 -57 -103 -73 -125 -17 -22 -37 -67 -46 -99 -8 -33 -26 -71
-39 -85 -32 -34 -45 -69 -62 -170 -9 -56 -24 -102 -45 -139 -31 -56 -110 -165
-114 -160 -1 2 8 62 21 133 28 157 29 205 8 312 -16 78 -16 86 1 128 9 25 28
53 41 62 22 14 26 14 49 -1 24 -16 25 -15 25 3 0 10 11 38 25 63 13 24 32 64
40 89 9 24 29 61 45 81 37 45 37 68 5 116 -14 20 -25 42 -25 49 0 20 35 33 87
33 80 0 80 3 12 140 -34 68 -64 141 -67 163 l-5 38 38 -7 38 -7 -21 30 c-11
16 -27 47 -35 69 -8 21 -24 65 -36 97 -12 32 -24 79 -28 105 -6 47 -6 47 15
29 20 -18 21 -18 32 3 7 12 10 33 7 46 -4 23 -4 23 32 -5 47 -37 132 -83 201
-109 341 -131 409 -160 485 -212 60 -40 74 -45 40 -16 -73 65 -230 151 -430
236 -219 93 -274 133 -351 257 -67 109 -93 142 -125 159 -38 19 -44 18 -57
-10 -16 -36 -121 -111 -135 -97 -27 27 -65 13 -158 -61 -19 -14 -71 -45 -116
-68 -68 -34 -87 -50 -113 -90 -39 -61 -85 -84 -161 -82 l-57 1 -71 -73 c-65
-68 -71 -77 -71 -115 0 -70 -33 -113 -148 -195 -29 -21 -79 -70 -111 -110 -83
-102 -82 -101 -125 -74 -87 56 -116 73 -186 111 -41 22 -80 44 -87 49 -8 6
-20 4 -35 -6 -34 -24 -85 -19 -142 14 -50 28 -53 29 -96 15 -25 -8 -64 -19
-87 -25 -23 -6 -72 -34 -110 -63 -98 -77 -127 -91 -238 -122 -163 -46 -203
-68 -332 -182 -43 -38 -90 -70 -118 -79 -25 -9 -51 -25 -59 -35 -13 -19 -13
-18 -32 2 -10 12 -39 31 -63 41 -61 28 -108 18 -226 -48 -140 -76 -185 -84
-236 -41 -21 18 -22 18 -51 -10 -16 -15 -39 -45 -49 -66 -11 -20 -26 -37 -33
-37 -14 0 -42 -63 -49 -110 -3 -23 -5 -23 -20 12 -20 45 -13 68 47 157 20 29
36 60 36 68 0 9 14 31 31 51 26 30 30 40 25 72 -3 22 -1 43 7 54 11 15 17 14
71 -15 69 -37 120 -41 212 -14 50 15 99 20 235 24 14 1 44 13 65 27 l38 26 56
-30 c30 -16 66 -33 80 -36 22 -6 22 -5 -5 10 -16 10 -54 35 -83 56 l-53 39
-30 -25 c-29 -25 -36 -26 -150 -26 -80 0 -139 -5 -178 -16 -71 -20 -111 -14
-175 26 -25 17 -57 30 -70 30 -26 0 -85 -40 -135 -93 -19 -21 -58 -44 -92 -57
-70 -27 -116 -70 -176 -170 -61 -102 -114 -160 -227 -255 l-95 -80 2 -172 c1
-95 5 -173 10 -173 5 0 44 16 87 35 92 42 113 43 145 10 28 -27 30 -46 13
-143 -14 -83 -1 -119 51 -137 18 -6 44 -24 58 -39 29 -34 41 -27 87 54 30 54
31 54 34 24 2 -17 -10 -63 -28 -106 -35 -90 -37 -119 -10 -256 12 -61 20 -144
20 -203 0 -55 5 -110 11 -122 12 -24 69 -87 79 -87 3 0 41 32 85 71 131 117
225 148 276 91 14 -15 38 -48 53 -74 32 -57 48 -55 72 10 33 89 91 129 226
157 109 23 139 18 161 -25 17 -32 18 -53 13 -234 -7 -234 -5 -236 70 -65 33
77 56 117 76 132 16 12 47 45 68 73 44 59 102 92 176 100 54 6 52 8 158 -105
75 -79 129 -85 134 -14 3 41 3 41 34 32 37 -10 75 -44 126 -113 39 -51 117
-96 168 -96 23 0 24 2 10 15 -8 9 -32 37 -53 63 -21 26 -41 49 -44 52 -3 3
-33 42 -66 87 -92 125 -102 151 -112 294 -5 68 -16 144 -25 169 -21 59 -21 59
14 72 27 9 60 51 60 76 0 6 -15 32 -33 58 -49 72 -60 107 -55 168 7 79 51 141
169 238 61 49 99 87 99 99 0 10 12 44 27 74 25 50 26 58 13 78 -52 82 -59 131
-26 177 46 64 56 88 60 152 3 34 5 65 6 68 0 3 19 -26 42 -63 48 -80 78 -104
110 -90 19 8 24 3 54 -56 25 -49 54 -85 112 -138 91 -83 112 -119 112 -197 0
-58 13 -76 58 -76 21 0 32 -25 32 -72 0 -16 13 -42 31 -63 30 -34 31 -37 20
-80 -14 -55 -6 -75 53 -140 50 -54 61 -81 53 -124 -7 -33 13 -75 47 -102 13
-10 43 -41 66 -69 l41 -49 -49 -25 c-67 -34 -182 -123 -330 -254 -125 -112
-428 -337 -604 -450 -53 -34 -142 -85 -198 -113 -100 -49 -290 -119 -325 -119
-10 0 -16 -3 -12 -6 3 -3 30 -1 59 6 118 27 221 66 373 140 88 43 183 85 210
94 28 9 118 55 200 102 173 98 448 235 520 258 75 25 185 36 185 19 0 -17 30
-16 53 1 107 81 249 223 267 265 10 26 18 31 47 31 28 0 42 -8 68 -35 l32 -36
28 43 c15 24 54 77 86 119 32 41 76 106 96 145 24 43 51 76 71 89 99 61 159
114 202 178 25 37 55 74 67 82 21 15 25 13 69 -32 93 -96 134 -180 134 -274 0
-62 18 -105 60 -144 17 -16 43 -52 57 -80 14 -27 56 -79 92 -115 71 -69 109
-137 151 -265 12 -38 26 -74 31 -80 22 -23 0 241 -51 605 -5 41 -13 156 -17
255 -8 245 4 325 67 453 26 53 51 117 55 142 9 55 17 71 66 133 21 26 41 62
45 79 l6 32 15 -29 c41 -77 66 -173 74 -286 10 -145 13 -156 60 -252 21 -42
52 -112 69 -156 17 -43 39 -86 50 -96 11 -10 20 -23 20 -29 0 -28 63 -138 120
-211 35 -44 60 -71 56 -60 -32 87 -42 380 -17 515 32 181 112 369 187 442 62
60 80 93 93 172 15 84 28 110 81 160 27 25 45 53 52 82 13 47 22 54 36 28 7
-13 10 -11 15 12 7 38 47 95 72 104 34 12 62 -6 104 -68 22 -33 59 -76 82 -96
53 -45 100 -110 146 -201 20 -38 66 -115 103 -170 54 -79 75 -124 105 -214 30
-91 46 -123 77 -157 41 -45 57 -89 58 -157 0 -21 11 -82 24 -135 28 -110 42
-223 52 -398 7 -118 7 -121 25 -103 11 11 19 29 19 42 1 65 108 259 202 366
90 102 96 114 75 151 -17 29 -17 29 18 64 51 51 48 83 -14 149 -57 60 -71 90
-71 150 0 25 -13 73 -30 114 -17 39 -37 107 -46 150 -21 99 -32 121 -88 167
-29 23 -66 71 -101 131 -43 73 -71 107 -126 154 -111 93 -309 366 -363 501
-15 35 -44 94 -65 130 -21 36 -41 80 -45 98 -5 31 -4 33 17 27 44 -14 243
-114 306 -155 35 -23 110 -88 165 -144 56 -57 133 -123 171 -148 124 -79 169
-146 215 -318 27 -103 36 -120 95 -189 26 -30 66 -94 90 -142 24 -48 62 -112
83 -143 57 -81 205 -266 210 -262 2 2 -8 28 -22 58 -15 29 -20 44 -12 33 42
-56 44 -54 13 10 -48 98 -84 207 -108 326 -11 57 -31 128 -44 159 -13 31 -29
88 -35 126 -22 133 -42 187 -121 341 -43 85 -79 160 -79 166 0 7 16 -5 35 -25
33 -35 71 -93 232 -352 41 -66 85 -133 99 -150 13 -17 35 -44 48 -61 l24 -30
-18 70 c-9 39 -32 115 -50 170 -22 69 -35 133 -41 205 -5 58 -13 129 -19 159
-5 29 -10 108 -10 173 0 111 1 120 18 113 37 -16 179 -56 219 -62 l41 -5 4
143 c4 149 3 145 78 384 12 39 20 104 24 185 3 70 12 147 21 175 11 36 14 70
9 125 l-6 75 48 63 c27 35 53 72 59 83 5 10 12 19 16 19 3 0 41 -27 85 -60 43
-33 82 -60 85 -60 4 0 -4 -29 -17 -65 -19 -53 -24 -84 -23 -158 l2 -92 8 88
c7 79 11 91 39 124 25 28 31 42 26 63 -5 26 -2 28 31 32 26 3 42 -1 55 -14 10
-10 26 -18 36 -18 33 0 32 -12 -3 -52 -31 -33 -35 -44 -35 -92 0 -36 -8 -71
-25 -108 -19 -42 -27 -83 -35 -179 -10 -117 -20 -170 -42 -212 -9 -18 -11 -18
-29 -1 -26 23 -25 6 2 -75 18 -53 19 -67 9 -89 -7 -15 -16 -72 -20 -127 -5
-55 -16 -117 -25 -138 -17 -41 -16 -41 37 -5 14 10 29 18 32 18 9 0 7 -74 -5
-149 -5 -38 -9 -91 -7 -117 3 -43 8 -27 51 146 67 272 67 271 76 265 5 -2 25
15 45 39 20 24 65 67 100 95 51 41 72 66 104 128 41 80 96 222 88 230 -2 2
-43 -39 -92 -92 -48 -52 -104 -106 -124 -120 -35 -24 -38 -25 -73 -10 -54 22
-50 54 21 184 73 135 82 155 82 193 0 29 -1 30 -18 15 -10 -10 -22 -17 -25
-17 -12 0 -8 36 9 76 9 22 21 50 26 63 14 38 35 8 47 -67 15 -92 35 -121 114
-160 37 -18 77 -46 88 -62 l22 -29 19 25 c11 13 24 24 29 24 19 0 51 -91 52
-151 2 -56 0 -61 -30 -85 -39 -30 -41 -40 -9 -48 28 -7 36 -37 36 -135 0 -140
-36 -192 -165 -234 -44 -15 -83 -27 -87 -27 -4 0 6 28 22 63 35 75 67 194 76
285 l7 67 -29 -26 c-46 -41 -77 -59 -101 -59 -28 0 -37 -19 -52 -120 -19 -119
-28 -143 -86 -223 -70 -96 -81 -123 -95 -233 -13 -93 -35 -157 -74 -208 -37
-50 -79 -126 -72 -133 10 -11 79 44 176 142 52 52 98 95 102 95 3 0 10 -9 13
-20 8 -27 40 -43 68 -34 12 3 60 45 106 93 46 47 71 70 56 51 -16 -19 -46 -73
-67 -120 -35 -76 -51 -97 -147 -190 -59 -58 -85 -84 -57 -59 28 25 77 67 108
93 48 39 65 63 101 139 53 111 200 287 239 287 2 0 3 -30 3 -66 0 -62 2 -67
33 -92 28 -24 32 -33 32 -76 0 -46 -3 -53 -48 -95 -26 -25 -99 -83 -163 -128
-128 -90 -208 -159 -241 -206 -18 -26 -11 -22 33 18 30 28 124 93 208 145 85
52 174 113 198 134 40 35 47 38 57 24 6 -9 25 -36 43 -61 17 -25 47 -54 65
-63 42 -22 55 -39 62 -87 9 -55 35 -102 110 -196 73 -92 90 -137 101 -263 10
-125 27 -168 100 -247 66 -72 76 -93 97 -211 6 -36 15 -69 20 -75 6 -6 7 0 4
15 -3 14 -8 52 -11 85 -9 86 -24 136 -50 170 -26 34 -36 78 -66 284 -24 165
-49 273 -78 329 l-20 40 22 15 c12 7 44 24 71 36 105 46 157 107 250 288 57
113 58 113 124 150 37 20 85 52 106 72 l40 36 -29 -40 c-43 -62 -85 -102 -116
-116 -16 -6 -29 -19 -29 -28 0 -9 -18 -57 -40 -106 -43 -97 -48 -117 -26 -109
22 8 36 -28 36 -92 l0 -58 33 31 c37 36 134 98 183 119 31 13 34 13 44 -6 19
-35 28 -110 19 -145 -12 -43 -94 -152 -119 -160 -11 -4 -20 -12 -20 -18 0 -7
-19 -50 -42 -97 -30 -59 -43 -97 -43 -126 0 -51 7 -59 35 -44 29 16 35 6 50
-79 17 -96 18 -98 51 -110 51 -18 72 -91 94 -325 3 -33 7 -61 9 -63 2 -2 13 8
24 22 46 58 45 -26 -1 -271 -20 -104 -44 -210 -52 -234 l-16 -45 51 55 c62 67
73 91 102 217 18 77 22 129 23 248 0 172 -11 218 -92 379 -25 50 -54 122 -65
161 -15 55 -28 79 -61 112 l-41 43 30 41 c19 27 50 53 89 74 55 29 60 34 63
68 2 27 -1 39 -12 43 -23 9 -20 54 10 118 29 63 28 92 -7 172 -10 25 -19 54
-19 65 0 23 2 23 -135 -1 -60 -10 -111 -17 -112 -16 -8 8 82 154 118 194 41
43 41 46 36 102 -3 31 -2 62 2 68 4 7 24 -3 53 -26 40 -30 54 -51 87 -127 22
-49 45 -119 51 -155 18 -104 30 -131 85 -190 58 -61 77 -93 111 -190 12 -36
23 -58 23 -50 1 8 21 -14 45 -50 58 -87 156 -177 243 -223 39 -20 73 -37 77
-37 3 0 -2 19 -10 43 -14 41 -38 236 -30 245 3 2 11 -10 20 -26 15 -29 94
-105 129 -124 11 -6 5 9 -17 39 -67 93 -103 214 -113 382 -5 83 -2 110 21 198
24 93 26 118 26 295 -1 155 -4 203 -18 243 -15 43 -20 50 -41 47 -34 -3 -48
12 -61 70 -11 42 -23 60 -72 107 -67 63 -88 96 -88 141 0 54 28 100 113 189
46 47 95 103 110 123 16 21 38 40 51 44 37 9 60 97 51 198 -7 93 1 113 56 131
53 18 61 56 60 283 -2 207 5 251 46 313 14 21 28 53 32 71 l7 32 89 -105 c50
-57 115 -146 144 -197 43 -73 75 -111 147 -177 84 -78 94 -92 129 -172 98
-229 201 -428 249 -482 12 -12 50 -38 86 -56 41 -21 79 -50 103 -79 61 -73
122 -78 200 -14 l40 32 -6 -30 c-14 -69 -51 -143 -101 -202 -52 -62 -66 -88
-101 -202 -9 -30 -34 -86 -55 -125 -21 -39 -45 -103 -54 -146 -21 -94 -51
-144 -159 -257 -45 -48 -108 -119 -140 -159 -32 -40 -75 -87 -97 -104 -32 -26
-40 -39 -40 -65 0 -51 -15 -79 -80 -149 -52 -56 -76 -96 -159 -268 -54 -111
-117 -226 -140 -255 l-41 -52 -52 36 c-61 41 -46 53 -136 -110 -126 -225 -257
-368 -411 -444 l-76 -37 -66 -125 c-36 -69 -95 -172 -132 -230 -37 -58 -67
-109 -67 -113 0 -5 10 -5 22 -1 20 6 21 5 9 -9 -15 -18 -2 -44 80 -160 24 -33
43 -73 46 -95 6 -42 12 -34 -127 -158 -136 -122 -142 -135 -14 -28 40 32 90
74 113 92 72 58 65 112 -32 257 l-46 68 72 48 c93 61 136 107 184 195 37 69
39 71 67 61 83 -28 154 38 334 312 1 3 16 -3 31 -12 42 -24 64 -21 113 16 24
18 80 57 125 86 52 33 115 87 171 146 81 86 105 120 130 185 8 23 10 20 26
-35 22 -72 57 -144 84 -168 11 -10 51 -33 89 -51 42 -20 79 -46 92 -65 32 -45
77 -73 124 -77 36 -3 50 -11 96 -61 96 -103 149 -126 193 -86 18 16 21 15 56
-20 20 -20 68 -78 107 -129 48 -63 92 -107 135 -137 57 -40 67 -53 99 -123 35
-78 36 -78 68 -72 31 6 38 1 131 -92 54 -55 143 -139 197 -189 163 -146 247
-235 303 -318 62 -95 69 -137 22 -137 -44 0 -67 -38 -51 -89 21 -72 83 -129
239 -221 60 -35 82 -56 118 -109 53 -79 57 -75 9 8 -38 65 -64 88 -163 146
-148 86 -235 235 -137 235 42 0 60 27 51 75 -10 50 -112 200 -192 280 -38 39
-130 129 -204 200 -74 71 -154 152 -177 180 -40 49 -106 95 -134 95 -8 0 -29
29 -47 63 -26 51 -46 73 -96 110 -41 29 -85 73 -121 124 -68 93 -137 166 -184
195 -33 21 -34 21 -47 3 -8 -10 -14 -22 -14 -27 0 -27 -46 2 -107 67 -72 76
-103 95 -151 95 -20 0 -41 14 -77 51 -30 32 -74 63 -110 79 -94 43 -113 71
-161 238 l-25 86 31 24 c24 18 30 31 30 60 0 71 7 81 48 71 24 -5 46 -3 68 6
28 12 33 20 39 60 7 44 26 75 46 75 5 0 26 15 46 34 50 44 68 52 133 60 62 8
159 52 214 98 36 29 76 93 76 121 0 8 26 30 58 50 79 48 153 130 195 213 30
59 43 74 87 99 74 42 115 100 150 212 17 55 41 109 59 132 41 51 54 89 47 134
-4 25 1 66 15 118 l22 79 49 -54 c36 -40 73 -67 145 -105 54 -28 123 -73 153
-102 143 -132 154 -146 184 -221 45 -112 87 -193 165 -312 39 -59 73 -117 76
-127 4 -10 12 -19 19 -19 16 0 97 52 115 73 7 9 29 26 48 38 l35 22 39 -23
c50 -27 72 -22 135 30 56 46 66 48 79 18 13 -31 47 -45 136 -58 101 -16 144
-43 249 -163 144 -163 282 -254 450 -298 73 -19 100 -21 193 -15 123 7 133 4
190 -60 30 -34 53 -48 118 -71 100 -35 140 -68 222 -186 89 -127 150 -181 297
-263 149 -82 196 -127 271 -255 88 -152 158 -238 280 -345 173 -151 237 -214
269 -263 24 -36 30 -40 30 -22 0 12 -10 41 -22 64 -12 23 -25 65 -29 94 -4 28
-28 98 -54 155 -27 57 -50 122 -53 146 l-5 42 42 0 42 0 -23 42 c-13 22 -56
76 -96 119 -73 78 -73 78 -56 104 20 30 15 70 -15 135 -26 55 -29 59 -118 185
-39 57 -79 118 -88 136 -10 18 -52 69 -94 114 -94 98 -120 140 -127 202 -5 41
0 59 30 121 20 41 39 91 42 113 5 30 11 39 26 39 15 0 17 3 8 19 -16 32 -13
34 48 29 40 -4 87 -20 153 -51 110 -52 180 -77 214 -77 24 0 25 3 25 64 0 82
-11 111 -52 132 -28 14 -40 15 -99 4 -83 -14 -90 -12 -189 86 -96 95 -202 175
-215 163 -43 -42 -247 55 -392 186 -32 28 -53 41 -53 32 0 -37 35 -107 94
-186 88 -118 176 -297 176 -358 0 -7 -11 -15 -24 -19 -19 -4 -26 -15 -31 -44
-5 -30 -12 -40 -28 -42 -20 -3 -22 -9 -22 -63 1 -69 29 -133 134 -303 36 -56
61 -105 58 -108 -11 -11 -54 5 -86 32 -17 14 -31 21 -31 16 0 -5 -9 -12 -21
-15 -19 -5 -18 -8 15 -55 20 -27 65 -110 100 -184 35 -74 78 -151 95 -171 18
-20 36 -49 41 -66 l8 -30 -51 35 c-29 20 -90 57 -136 82 -111 62 -180 126
-254 236 -33 50 -73 107 -89 126 -75 89 -183 247 -199 291 -35 92 -22 156 49
238 27 31 54 66 60 78 22 41 14 88 -23 139 -19 27 -43 64 -52 82 -12 23 -21
31 -32 26 -31 -14 -102 -16 -131 -4 -21 9 -33 22 -38 44 -8 30 -11 31 -65 34
-53 3 -58 5 -74 35 -10 19 -18 64 -20 112 -5 102 -24 145 -79 185 -44 32 -86
93 -98 142 -3 15 -15 32 -26 38 -22 12 -26 49 -10 81 11 20 40 25 56 9 5 -5
28 -19 52 -32 23 -13 59 -45 80 -72 20 -28 74 -79 118 -115 61 -49 99 -91 150
-165 37 -54 69 -95 71 -90 1 5 9 70 17 144 16 146 61 307 98 346 11 12 41 30
66 39 26 10 55 24 64 33 16 13 21 11 55 -18 20 -18 80 -53 133 -77 150 -70
179 -99 201 -201 10 -47 12 -50 41 -48 27 1 32 -4 45 -39 8 -22 18 -58 22 -80
l7 -40 39 42 c34 38 43 43 83 43 38 0 49 -5 78 -35 50 -54 77 -134 78 -237 1
-49 5 -88 10 -88 6 0 23 12 38 27 22 21 31 24 40 15 19 -19 38 -14 75 18 18
17 43 30 55 30 21 0 61 -38 136 -128 24 -29 73 -77 110 -106 93 -76 155 -134
193 -181 l32 -40 -8 40 c-4 22 -24 81 -44 130 -43 101 -77 233 -64 246 4 4 35
-5 68 -21 74 -36 175 -60 254 -60 60 0 60 0 90 -43 58 -85 191 -193 261 -212
14 -3 1 8 -29 25 -66 39 -179 153 -211 214 -24 44 -24 44 -89 51 -134 13 -247
53 -317 110 l-42 35 -11 -30 c-5 -17 -14 -30 -19 -30 -6 0 -35 31 -66 69 -103
126 -158 168 -355 272 -35 18 -84 52 -110 74 -25 23 -77 63 -116 90 -86 59
-135 101 -157 133 l-16 25 -21 -34 c-12 -19 -21 -40 -21 -47 0 -7 -7 -29 -15
-49 l-15 -35 -40 35 c-44 40 -79 60 -193 107 -43 18 -100 50 -127 71 -47 37
-50 38 -60 19 -6 -11 -16 -20 -21 -20 -17 0 -179 132 -230 187 -48 51 -134
164 -142 185 -3 9 -12 6 -29 -9 -37 -34 -57 -28 -115 33 l-54 56 -62 -30 c-34
-17 -89 -49 -122 -71 -33 -22 -63 -37 -66 -33 -3 4 -14 28 -23 55 -10 26 -27
54 -38 62 -20 13 -25 11 -67 -24 -87 -71 -290 -193 -292 -174 -1 4 0 26 0 48
l1 40 -51 -54 c-28 -30 -77 -93 -109 -141 -70 -104 -124 -154 -260 -240 -56
-36 -134 -91 -174 -122 -145 -118 -252 -197 -292 -218 -57 -29 -114 -37 -128
-19 -41 53 -206 184 -272 216 -92 44 -178 124 -195 182 -7 23 -14 41 -17 41
-2 0 -41 -34 -85 -76 -45 -42 -93 -81 -106 -87 -25 -12 -31 -7 -90 75 -13 18
-40 46 -59 61 -40 31 -158 186 -178 235 -8 17 -18 32 -23 32 -24 0 -70 -25
-113 -61 -64 -54 -102 -52 -138 6 -13 21 -45 45 -93 70 -39 21 -84 51 -99 68
-27 31 -166 303 -237 467 -39 89 -47 99 -127 169 -87 76 -123 120 -164 201
-34 67 -247 320 -270 320 -4 0 -15 -10 -26 -21z m-2596 -931 c10 -27 9 -33 -6
-44 -38 -29 -49 -13 -36 54 8 37 25 33 42 -10z m3920 -484 c35 -46 84 -101
108 -122 25 -20 59 -59 76 -85 17 -26 39 -54 49 -61 18 -12 17 -16 -22 -87
-73 -129 -112 -182 -192 -261 -81 -80 -216 -185 -327 -254 -117 -73 -115 -73
-75 -1 35 64 66 166 86 286 10 60 114 300 130 301 13 0 93 -105 104 -137 11
-33 12 -34 19 -12 3 13 9 83 12 154 6 124 5 135 -25 246 -17 64 -31 124 -30
135 0 18 1 18 12 1 7 -11 40 -57 75 -103z m2021 44 c-4 -29 -15 -86 -23 -126
-9 -40 -16 -92 -16 -115 l0 -41 43 41 c23 23 56 45 72 49 17 4 51 22 78 40 26
19 50 34 53 34 4 0 4 -26 1 -57 -6 -65 -44 -169 -88 -238 -25 -39 -32 -44 -48
-35 -11 5 -25 26 -32 44 -7 19 -16 33 -21 30 -4 -3 -8 -48 -8 -100 0 -86 -3
-103 -35 -180 -38 -92 -44 -148 -19 -195 26 -52 15 -59 -60 -39 -36 9 -81 29
-100 44 -19 14 -45 26 -58 26 -21 0 -23 -3 -20 -50 4 -50 4 -51 -22 -44 -38 9
-69 -2 -116 -41 -46 -38 -65 -42 -94 -20 -37 28 -80 18 -148 -33 -89 -68 -84
-67 -109 -25 -12 21 -46 74 -75 118 -61 94 -80 132 -123 240 -18 44 -39 90
-47 103 -14 21 -13 22 13 22 56 0 185 73 353 200 41 31 121 84 178 116 57 32
126 76 154 97 46 35 50 37 44 15 -4 -12 -10 -43 -13 -68 l-6 -45 44 49 c24 28
62 66 84 85 22 20 67 62 100 93 33 32 63 58 66 58 3 0 2 -24 -2 -52z m-5401
-33 l52 -44 -42 -19 c-28 -12 -44 -15 -47 -8 -2 6 -19 28 -39 48 -22 23 -32
42 -29 52 11 28 52 17 105 -29z m-3374 -350 c-14 -19 -28 -35 -30 -35 -7 0 9
35 24 53 28 32 33 17 6 -18z m-1409 -160 c28 -44 55 -87 60 -95 5 -8 -10 0
-34 17 -48 35 -84 83 -94 125 -4 14 -10 34 -14 45 -14 39 30 -11 82 -92z
m-1761 -734 c12 0 36 6 55 13 32 12 39 10 110 -29 42 -23 93 -52 113 -66 86
-56 125 -77 154 -83 46 -10 100 -60 128 -121 29 -60 61 -88 156 -134 46 -23
82 -51 123 -96 52 -58 118 -109 275 -214 45 -30 77 -70 204 -253 83 -120 155
-215 160 -212 5 3 8 2 7 -3 -3 -20 2 -33 12 -31 21 5 18 -17 -5 -46 l-24 -28
-38 26 c-21 14 -42 26 -47 26 -4 0 -54 -40 -110 -88 -56 -48 -115 -96 -130
-106 -48 -30 -235 -126 -245 -126 -6 0 -21 17 -33 38 -13 20 -41 56 -63 80
-37 40 -38 44 -33 93 8 62 -2 89 -59 158 -29 35 -43 60 -39 70 4 9 9 37 12 62
5 41 2 49 -26 81 -25 28 -31 45 -31 80 0 53 -22 88 -56 88 -22 0 -24 4 -24 43
-1 69 -33 123 -129 216 -86 83 -124 139 -155 229 l-12 34 -30 -31 c-16 -17
-32 -31 -36 -31 -4 0 -35 41 -69 91 -34 49 -95 123 -134 162 -58 58 -115 137
-115 160 0 2 25 -9 56 -25 31 -15 66 -28 78 -27z m1484 -15 c15 -8 47 -36 70
-63 41 -45 44 -51 38 -92 -3 -24 -17 -69 -31 -99 -18 -38 -25 -72 -25 -113 0
-48 -4 -60 -22 -73 -12 -9 -29 -16 -38 -16 -8 0 -20 -10 -26 -23 -7 -12 -22
-41 -34 -65 l-22 -42 46 -95 c39 -81 46 -104 46 -155 0 -46 5 -68 21 -89 20
-27 20 -28 1 -77 -18 -48 -18 -58 4 -134 6 -21 1 -18 -26 15 -46 57 -68 111
-81 201 -12 90 -33 135 -84 184 -20 19 -46 51 -57 70 -12 19 -40 64 -63 100
-81 125 -85 178 -13 202 25 9 44 22 46 31 2 10 -10 36 -27 59 -17 23 -31 53
-31 66 0 40 30 90 81 136 88 79 166 104 227 72z m-48 -1101 c14 -19 14 -19 -2
-6 -10 7 -18 18 -18 24 0 6 1 8 3 6 1 -2 9 -13 17 -24z"/>
<path d="M11154 5132 c-21 -14 -23 -57 -8 -132 11 -50 15 -106 12 -170 -4 -86
-9 -103 -46 -181 -69 -146 -66 -172 27 -287 57 -71 79 -131 88 -241 l6 -73 17
66 c9 36 26 79 38 95 37 50 37 74 2 135 -28 50 -32 68 -41 183 -8 110 -7 139
8 208 26 118 24 186 -10 270 -56 137 -63 147 -93 127z"/>
<path d="M11556 4225 c-13 -123 -43 -230 -96 -335 -74 -148 -78 -176 -41 -290
17 -51 31 -108 31 -127 0 -46 -46 -159 -126 -311 -43 -82 -66 -139 -70 -170
-3 -26 -7 -60 -9 -77 -4 -26 -3 -28 6 -10 6 11 49 76 95 145 45 69 97 153 113
187 27 54 91 280 91 323 0 8 -9 45 -21 82 l-22 66 20 39 c10 21 29 56 41 78
36 67 55 161 48 235 -10 105 -17 143 -31 175 -7 17 -15 37 -17 45 -3 8 -8 -16
-12 -55z"/>
<path d="M12865 3895 c3 -22 27 -89 51 -148 48 -117 52 -154 29 -231 -24 -77
-19 -117 21 -193 20 -37 64 -122 98 -188 34 -66 76 -142 95 -168 74 -107 141
-275 141 -351 0 -14 5 -26 11 -26 16 0 4 83 -22 157 -13 37 -24 100 -29 173
-7 100 -15 136 -59 269 -27 84 -63 174 -78 199 -58 95 -69 158 -36 195 17 18
17 19 0 28 -9 5 -29 31 -43 57 -63 110 -135 219 -160 242 l-27 25 8 -40z"/>
<path d="M12781 3505 c-1 -17 -10 -62 -21 -100 -26 -92 -25 -130 6 -212 14
-37 37 -96 50 -131 42 -110 94 -412 94 -547 0 -46 14 -61 25 -26 3 10 14 26
25 36 17 16 18 19 4 40 -22 34 -27 107 -16 246 12 140 8 177 -15 158 -21 -18
-27 -6 -68 121 -25 79 -41 155 -52 245 -8 71 -18 146 -23 165 -8 35 -8 35 -9
5z"/>
<path d="M17682 3040 c-53 -35 -96 -58 -105 -54 -11 4 -24 -12 -46 -53 -44
-83 -112 -166 -179 -218 -52 -42 -91 -63 -226 -126 -84 -38 -290 -251 -405
-417 -13 -18 42 31 121 110 170 170 256 237 358 279 97 40 145 68 208 121 56
47 133 141 163 201 11 20 24 37 29 37 6 0 65 -23 132 -51 67 -28 149 -55 181
-60 88 -14 195 -58 190 -78 -2 -9 9 -30 25 -46 37 -38 52 -67 52 -98 0 -31
-20 -48 -79 -68 l-46 -16 -1 -69 c0 -53 -8 -87 -31 -144 -17 -41 -34 -92 -37
-112 -6 -36 -5 -38 32 -57 59 -30 127 -113 177 -215 39 -80 46 -103 54 -191
24 -245 -63 -623 -174 -753 -30 -36 -110 -80 -213 -117 -135 -49 -170 -45
-343 36 -58 27 -137 58 -174 69 l-69 20 43 -44 43 -44 -44 -29 c-105 -71 -170
-103 -269 -132 -168 -49 -275 -72 -342 -73 l-62 -2 37 -15 c21 -9 38 -21 38
-27 0 -6 -22 -32 -48 -56 -55 -52 -91 -63 -242 -73 -106 -8 -228 6 -319 35
-32 10 -125 52 -207 94 -160 82 -241 104 -331 90 l-45 -7 58 -31 c75 -40 152
-93 182 -125 25 -27 32 -111 10 -111 -89 -1 -504 -71 -597 -102 l-64 -20 49
-42 c27 -22 74 -64 104 -92 l54 -52 -44 -12 c-25 -6 -71 -20 -103 -31 -39 -13
-85 -19 -145 -19 -92 0 -146 -10 -177 -35 -18 -13 52 -14 613 -15 609 0 632 1
632 19 0 17 46 48 211 140 96 53 177 80 293 96 61 8 126 18 144 21 l33 6 -20
-33 c-33 -57 -62 -142 -57 -164 4 -16 27 -32 76 -54 l70 -31 285 0 285 0 -15
38 c-31 73 -90 112 -170 112 -26 0 -32 5 -40 32 -13 42 -54 65 -151 83 -43 9
-79 17 -81 18 -1 2 1 23 5 48 6 38 12 46 47 64 34 17 69 21 230 26 172 6 202
9 310 39 66 18 125 32 130 32 16 -1 137 -32 147 -38 5 -3 -21 -37 -57 -75 -36
-38 -65 -74 -65 -79 0 -15 30 -12 131 14 113 29 234 48 303 48 44 -1 55 -5 78
-31 15 -16 32 -47 37 -68 13 -46 14 -174 2 -225 l-9 -38 135 0 134 0 56 53
c31 28 53 46 48 38 -15 -25 55 21 116 77 40 36 69 76 91 120 29 59 33 76 32
147 -1 104 -21 207 -48 248 -20 29 -63 58 -109 71 -18 6 -18 7 0 37 10 17 45
52 78 77 91 68 143 122 150 153 10 45 122 109 215 124 l45 7 -50 -32 c-91 -58
-145 -121 -145 -170 0 -29 29 -25 72 10 20 17 39 26 42 21 4 -5 11 -33 16 -63
12 -61 37 -114 105 -217 53 -81 58 -80 69 11 6 44 18 73 52 125 52 79 52 92
-3 191 -31 57 -36 78 -31 135 1 11 18 27 44 38 23 11 82 52 130 91 112 90 181
131 313 184 l104 43 -33 -34 c-22 -23 -31 -40 -27 -54 3 -13 -8 -37 -34 -71
-22 -29 -39 -58 -39 -64 0 -22 46 -57 84 -63 50 -8 68 -38 74 -123 2 -39 9
-70 15 -70 15 0 1 -193 -21 -277 -10 -40 -17 -73 -16 -73 7 0 176 262 190 295
9 22 28 65 42 95 15 32 28 79 30 112 4 50 1 63 -27 108 -17 28 -37 72 -42 98
-22 92 23 145 196 228 50 23 123 61 163 84 l72 42 0 -29 c0 -16 11 -67 25
-113 14 -46 25 -100 25 -119 0 -46 -34 -170 -61 -223 l-20 -39 20 11 c18 9 16
1 -14 -53 -27 -49 -35 -75 -35 -113 0 -36 -7 -59 -25 -87 -14 -20 -30 -37 -35
-37 -19 0 -40 -61 -40 -117 0 -32 7 -89 16 -128 8 -38 15 -98 16 -132 0 -57
-6 -75 -65 -200 -54 -114 -127 -323 -127 -363 0 -6 41 -10 103 -10 l104 0 88
78 c87 76 88 77 59 83 -16 4 -46 7 -66 8 -30 1 -38 5 -38 20 0 39 31 102 80
165 92 118 177 329 187 466 4 61 1 92 -21 170 -32 118 -33 168 -4 205 25 32
91 64 131 65 23 0 27 -4 27 -28 0 -29 24 -72 41 -72 19 0 51 93 66 194 8 55
25 124 37 151 30 65 103 161 159 207 42 35 210 148 220 148 11 0 27 -61 42
-151 16 -105 29 -149 44 -149 6 0 11 -21 13 -47 l3 -48 50 89 c51 90 93 136
123 136 47 -1 179 -120 243 -218 l49 -75 0 -128 c0 -95 4 -139 16 -169 l16
-40 47 32 c25 18 65 50 88 71 l42 39 -29 59 c-39 77 -60 166 -60 261 0 76 0
77 23 69 19 -7 106 -21 228 -36 36 -5 37 -4 43 34 3 22 17 53 31 69 14 17 25
35 25 41 0 27 -145 153 -267 234 -137 91 -177 130 -232 228 -41 74 -40 86 3
23 41 -61 85 -94 265 -200 74 -43 151 -96 170 -118 20 -21 51 -54 69 -73 25
-27 38 -34 58 -30 27 5 55 -24 89 -93 10 -19 38 -60 64 -90 67 -78 149 -187
166 -220 14 -27 72 -76 80 -68 2 2 -9 12 -25 23 -16 11 -39 37 -51 60 -23 41
-79 118 -156 213 -24 29 -56 79 -72 110 -35 70 -57 90 -96 90 -22 0 -35 7 -50
28 -45 65 -127 134 -235 198 -157 93 -214 137 -254 199 -39 60 -87 114 -169
186 l-58 51 -109 -84 c-153 -118 -269 -164 -467 -186 -149 -16 -221 -56 -386
-209 -134 -124 -135 -124 -379 -82 -51 8 -59 0 -38 -39 9 -17 3 -21 -62 -41
-49 -14 -98 -21 -148 -21 -103 2 -112 -2 -105 -42 6 -28 3 -34 -20 -44 -42
-19 -55 -15 -55 18 0 85 -53 116 -181 106 -72 -5 -90 -4 -103 9 -23 23 -20 33
19 68 33 29 35 34 30 76 -5 36 -1 53 14 78 42 66 106 83 199 50 23 -8 42 -11
42 -7 0 4 -18 30 -40 56 -22 27 -39 56 -38 64 6 30 57 23 128 -19 155 -92 310
-132 378 -97 17 9 33 16 36 16 3 0 53 -38 111 -85 58 -47 108 -85 111 -85 8 0
-57 63 -138 133 -43 37 -83 67 -88 67 -6 0 -22 -7 -36 -16 -53 -35 -184 4
-353 106 -52 31 -91 46 -130 52 -124 17 -138 23 -186 76 -66 73 -108 87 -243
79 -140 -8 -162 0 -228 82 -54 67 -90 92 -161 111 -39 10 -45 16 -73 75 -33
69 -85 118 -148 141 -22 8 -84 13 -155 14 l-119 0 -81 83 c-112 113 -135 121
-357 118 -117 -1 -189 3 -239 14 -127 27 -148 23 -249 -45z m711 -40 c31 -16
54 -36 62 -55 8 -16 28 -48 45 -70 17 -23 33 -57 37 -77 5 -32 1 -41 -23 -66
-23 -22 -28 -34 -23 -53 20 -72 -5 -97 -85 -85 -36 6 -59 19 -104 58 -31 28
-82 61 -112 75 -30 13 -86 40 -125 58 -38 19 -83 39 -98 45 -35 12 -34 50 1
65 26 12 27 15 7 62 -8 20 -14 37 -13 38 38 31 68 35 223 32 146 -3 164 -5
208 -27z m466 -200 c44 -12 111 -77 111 -106 0 -13 5 -35 10 -50 9 -23 7 -33
-10 -55 -27 -37 -26 -43 14 -125 19 -38 37 -93 41 -121 4 -29 10 -55 14 -57
10 -6 51 198 51 251 l0 42 33 -9 c18 -6 47 -27 67 -51 108 -130 133 -140 320
-132 l116 5 32 -36 c18 -20 32 -40 32 -44 0 -4 -25 -20 -55 -35 -35 -17 -60
-37 -70 -56 -14 -28 -13 -37 12 -135 28 -105 28 -106 8 -125 -15 -15 -43 -23
-105 -31 -47 -5 -116 -19 -155 -30 -87 -25 -126 -25 -198 0 -31 11 -66 20 -77
20 -32 0 -78 27 -131 77 l-49 45 2 -46 c1 -25 -3 -51 -9 -57 -36 -36 -148 86
-264 286 l-67 115 15 42 c8 24 19 90 24 148 5 58 16 136 25 173 8 37 12 72 9
78 -4 5 1 9 9 9 9 0 16 5 16 10 0 13 184 13 229 0z m2461 -703 c0 -49 -16 -81
-38 -72 -9 3 -52 -6 -96 -21 -45 -15 -86 -28 -92 -30 -6 -1 -15 -19 -19 -40
-18 -96 -68 -189 -117 -215 -17 -9 -19 -8 -14 8 2 10 8 34 11 54 l7 37 -90 21
c-49 12 -102 21 -118 21 -28 0 -25 4 46 71 147 138 247 197 338 200 20 1 66 6
102 13 74 13 80 9 80 -47z"/>
<path d="M12535 3070 c4 -14 13 -36 20 -50 35 -69 77 -228 119 -450 3 -14 3
18 1 70 -5 111 -6 112 73 -65 l53 -120 -4 60 c-5 64 -31 128 -112 270 -24 44
-58 121 -75 171 -19 58 -40 100 -57 115 l-25 24 7 -25z"/>
<path d="M12360 3005 c0 -10 9 -68 20 -129 23 -123 71 -237 107 -255 12 -5 36
-34 52 -63 17 -29 31 -50 31 -47 0 6 -25 76 -87 244 -8 22 -13 57 -10 77 6 44
-10 75 -70 143 -30 34 -43 43 -43 30z"/>
<path d="M13780 2986 c-16 -33 -40 -38 -108 -22 -32 8 -34 7 -27 -15 23 -77
113 -305 146 -369 21 -41 41 -95 45 -120 6 -35 9 -40 15 -25 14 36 9 143 -11
245 -10 56 -22 147 -26 203 -9 129 -14 145 -34 103z"/>
<path d="M9615 2873 c-17 -52 -29 -111 -29 -143 -1 -51 33 -195 98 -415 l24
-80 7 110 c16 245 22 290 54 364 l31 72 -39 -30 c-21 -17 -41 -31 -44 -31 -6
0 -45 122 -61 193 l-12 48 -29 -88z"/>
<path d="M14120 2901 c0 -17 9 -67 21 -113 12 -52 23 -139 28 -233 9 -173 3
-159 136 -360 111 -168 137 -219 170 -327 14 -46 23 -68 20 -50 -23 151 -27
238 -21 497 l6 280 -30 -52 c-33 -57 -63 -83 -97 -83 -28 0 -45 32 -71 131
-19 74 -140 339 -154 339 -4 0 -8 -13 -8 -29z"/>
<path d="M11212 2818 c-12 -34 -22 -70 -21 -78 0 -8 11 16 25 55 13 38 23 73
21 78 -1 5 -13 -20 -25 -55z"/>
<path d="M8802 2685 c-113 -85 -295 -299 -372 -439 l-33 -58 31 -25 c47 -36
80 -99 106 -205 19 -74 53 -301 57 -380 1 -34 22 50 50 201 50 278 84 379 161
478 43 57 58 62 118 40 49 -18 77 -34 138 -79 28 -21 52 -37 52 -34 0 2 -9 32
-20 67 -20 63 -41 106 -133 264 -26 44 -54 110 -64 147 -10 38 -20 68 -24 68
-4 0 -34 -20 -67 -45z"/>
<path d="M12053 2674 c-16 -86 -29 -114 -53 -114 -11 0 -20 -4 -20 -8 0 -15
81 -125 145 -197 85 -96 188 -247 230 -339 78 -170 105 -222 125 -245 52 -60
26 23 -41 129 -44 70 -116 265 -185 502 -12 41 -32 75 -71 120 -47 55 -74 100
-109 187 -9 21 -11 17 -21 -35z"/>
<path d="M11827 2412 c5 -58 -10 -142 -26 -142 -2 0 -16 11 -30 24 -38 36
-116 75 -131 66 -9 -6 -5 -19 17 -51 17 -24 55 -85 86 -135 54 -87 87 -123
190 -207 35 -28 51 -51 68 -97 25 -70 39 -84 39 -41 0 18 5 31 13 31 23 0 92
-42 160 -99 79 -65 139 -110 148 -111 8 0 -76 164 -110 214 -14 22 -62 66
-105 98 -92 67 -138 124 -194 240 -22 46 -61 126 -86 178 l-45 95 6 -63z"/>
<path d="M13546 2384 c3 -43 10 -120 15 -171 5 -51 9 -124 9 -163 0 -69 -1
-71 -22 -65 -13 4 -33 13 -45 21 -38 24 -28 -5 22 -66 25 -30 52 -77 60 -103
20 -67 47 -101 124 -157 37 -27 89 -76 115 -110 27 -34 50 -59 53 -56 11 11
-101 310 -164 438 -44 89 -46 98 -53 208 -7 123 -11 135 -80 242 l-40 61 6
-79z"/>
<path d="M12656 2310 c11 -40 111 -305 129 -339 8 -17 18 -31 21 -31 2 0 1 8
-4 18 -5 9 -28 72 -50 139 -37 108 -113 279 -96 213z"/>
<path d="M11394 2083 c-10 -39 9 -138 41 -213 55 -131 55 -122 14 -426 -17
-123 -3 -159 99 -265 91 -94 121 -139 167 -246 59 -138 100 -323 131 -593 l7
-65 14 45 c11 36 13 89 7 256 -3 116 -3 221 1 232 14 47 120 20 173 -43 l31
-38 36 31 c68 60 171 39 277 -56 28 -26 64 -65 80 -86 34 -47 35 -44 6 20 -12
27 -65 166 -119 309 l-97 260 -144 -4 c-182 -4 -215 4 -282 72 -39 38 -61 73
-85 132 -39 93 -339 705 -346 705 -2 0 -8 -12 -11 -27z"/>
<path d="M8212 2008 c-18 -50 -69 -106 -121 -132 -53 -28 -75 -61 -137 -210
l-42 -99 -25 54 c-15 30 -37 69 -51 87 l-25 34 6 -94 c5 -84 3 -100 -21 -168
-15 -41 -41 -122 -58 -180 -57 -198 -103 -265 -261 -378 -62 -44 -74 -58 -62
-65 34 -19 117 30 254 152 143 126 166 153 195 229 15 39 50 108 78 154 58 95
78 144 103 245 11 48 35 103 72 165 63 105 116 215 111 230 -2 5 -9 -6 -16
-24z"/>
<path d="M14500 1751 c0 -6 4 -13 10 -16 6 -3 7 1 4 9 -7 18 -14 21 -14 7z"/>
<path d="M12420 1641 c0 -23 83 -115 151 -169 42 -33 104 -95 139 -138 35 -44
91 -104 124 -134 33 -30 80 -74 105 -98 25 -24 78 -67 117 -97 85 -64 97 -80
207 -265 99 -168 137 -222 137 -196 0 22 -20 62 -86 167 -61 97 -90 159 -74
159 6 0 30 -18 54 -40 37 -34 45 -38 50 -23 5 12 -20 44 -96 121 -57 58 -94
101 -83 97 122 -47 121 -46 98 -28 -11 10 -45 33 -75 51 -63 39 -156 126 -253
236 -115 130 -128 143 -173 174 -24 17 -78 42 -120 57 -58 19 -93 39 -142 80
-63 54 -80 64 -80 46z"/>
<path d="M10504 1290 c-23 -37 7 -274 41 -327 8 -12 36 -28 67 -37 45 -13 57
-22 81 -60 33 -53 54 -71 81 -71 18 0 22 -8 28 -55 12 -109 7 -213 -15 -299
-25 -95 -41 -113 -81 -91 -26 13 -56 85 -56 134 0 41 -13 47 -113 49 l-96 2
-11 43 c-6 24 -16 42 -22 40 -21 -7 -25 -43 -12 -93 8 -27 21 -95 29 -149 21
-136 44 -160 109 -111 44 33 63 32 122 -10 27 -20 67 -38 89 -42 44 -7 85 -42
85 -73 0 -11 5 -20 10 -20 6 0 18 -13 29 -30 10 -16 20 -27 23 -24 4 3 12 -11
19 -30 12 -34 15 -36 61 -36 l48 0 -1 68 c-1 108 -24 317 -35 315 -5 -1 -17
-5 -26 -8 -24 -10 -38 30 -38 109 0 65 24 166 40 166 5 0 16 -10 26 -22 16
-22 16 -21 10 34 -3 31 -22 112 -42 180 -54 184 -74 260 -74 286 0 19 -4 22
-20 17 -12 -4 -31 0 -45 9 -14 9 -46 16 -75 16 -30 0 -50 4 -50 11 0 8 -12 10
-35 6 -32 -5 -40 -1 -84 41 -26 26 -50 54 -53 62 -4 12 -6 12 -14 0z"/>
<path d="M19690 1280 c0 -8 -23 -43 -51 -78 -88 -107 -92 -150 -21 -233 36
-41 37 -46 35 -114 0 -42 -9 -94 -22 -129 -12 -33 -20 -61 -18 -62 8 -8 70
105 111 203 26 61 62 135 81 164 38 61 39 59 -36 149 -28 34 -57 74 -65 88 -8
15 -14 20 -14 12z"/>
<path d="M22190 983 c-30 -20 -80 -47 -110 -59 -44 -18 -56 -28 -58 -49 -2
-14 -7 -23 -12 -20 -11 7 -93 -162 -109 -221 -11 -44 -3 -97 22 -135 9 -14 57
-62 106 -107 68 -63 96 -97 120 -144 31 -65 61 -171 61 -220 l0 -28 108 0 108
0 39 47 c27 32 33 44 20 39 -55 -23 -126 -46 -140 -46 -20 0 -19 18 6 110 26
94 21 119 -31 170 -60 59 -51 109 27 149 22 11 150 28 196 26 15 -1 24 1 22 5
-2 3 -29 7 -60 8 -30 0 -64 3 -74 7 -21 6 -124 143 -162 215 -22 40 -24 58
-24 168 0 67 0 122 0 121 0 0 -25 -16 -55 -36z"/>
<path d="M13300 978 c0 -3 24 -21 53 -40 121 -83 188 -116 90 -46 -55 39 -143
92 -143 86z"/>
<path d="M13520 836 c0 -6 46 -31 85 -46 14 -5 25 -6 25 -1 0 8 -19 17 -97 48
-7 3 -13 3 -13 -1z"/>
<path d="M22588 493 c7 -3 16 -2 19 1 4 3 -2 6 -13 5 -11 0 -14 -3 -6 -6z"/>
</g>
</svg>
